<svg xmlns="http://www.w3.org/2000/svg" width="70" height="70" viewBox="0 0 70 70" fill="none"><g fill="currentcolor" clip-path="url(#a)"><path d="m8.47 15.919 1.237 3.012 3.298.093-2.527 2.09.93 3.117-2.797-1.719-2.727 1.835.795-3.152L4.07 19.21l3.293-.227L8.47 15.92ZM50.199 57.049l1.236 3.012 3.298.093-2.526 2.09.93 3.117-2.797-1.718-2.721 1.834.795-3.152-2.615-1.99 3.292-.227 1.108-3.06ZM19.667 4.885l1.237 3.012 3.298.093-2.526 2.09.93 3.117-2.797-1.718-2.722 1.834.796-3.152-2.61-1.985 3.293-.226 1.101-3.065ZM19.665 57.049l1.237 3.012 3.298.093-2.526 2.09.93 3.117-2.803-1.718-2.721 1.834.795-3.152-2.61-1.99 3.293-.227 1.107-3.06ZM50.199 4.885l1.236 3.012 3.299.093-2.527 2.09.93 3.117-2.797-1.718-2.721 1.834.795-3.152-2.61-1.985 3.293-.226L50.2 4.885ZM8.47 46.015l1.237 3.012 3.298.093-2.527 2.09.931 3.117-2.798-1.718-2.72 1.834.794-3.152-2.609-1.985 3.293-.227 1.101-3.064ZM61.396 15.919l1.237 3.012 3.298.093-2.527 2.09.93 3.117-2.797-1.719-2.727 1.835.795-3.152-2.609-1.985 3.292-.227 1.108-3.064ZM65.464 30.97l1.237 3.012 3.298.093-2.526 2.09.93 3.117-2.798-1.718-2.72 1.834.794-3.152-2.609-1.985 3.293-.227 1.101-3.064ZM4.4 30.97l1.236 3.012 3.299.093-2.527 2.09.93 3.117-2.797-1.718-2.721 1.834.795-3.152L0 34.255l3.292-.226 1.108-3.06ZM34.933 61.06l1.237 3.012 3.298.093-2.527 2.09.93 3.117-2.797-1.719-2.72 1.835.794-3.152-2.609-1.985 3.292-.227 1.102-3.064ZM34.933.874l1.237 3.012 3.298.093-2.527 2.09.93 3.117-2.797-1.718-2.72 1.834.794-3.152-2.609-1.985 3.292-.227L34.933.874ZM61.396 46.015l1.237 3.012 3.298.093-2.527 2.09.93 3.117-2.797-1.718-2.727 1.834.795-3.152-2.609-1.985 3.292-.227 1.108-3.064Z"></path></g><defs><clipPath id="a"><path fill="none" d="M0 .593h70V69.77H0z"></path></clipPath></defs></svg>