<svg xmlns="http://www.w3.org/2000/svg" width="70" height="71" viewBox="0 0 70 71" fill="none"><path fill="currentcolor" fill-rule="evenodd" d="M35 7.18c-15.691 0-28.412 12.721-28.412 28.413 0 15.69 12.72 28.411 28.412 28.411 15.691 0 28.412-12.72 28.412-28.412 0-15.69-12.72-28.411-28.412-28.411ZM0 35.594c0-19.33 15.67-35 35-35s35 15.67 35 35-15.67 35-35 35-35-15.67-35-35Z" clip-rule="evenodd"></path><path fill="currentcolor" d="M21.9 28.11h-4.785l-1.086 2.953h-.933l3.988-10.539h.847l3.988 10.539h-.927L21.9 28.11Zm-4.51-.76h4.227l-2.113-5.74-2.114 5.74Zm9.17 3.713h-.89V20.524h.89v10.539Zm10.33-3.286c-.121 1.11-.52 1.96-1.195 2.548-.67.588-1.566.883-2.685.883-.782 0-1.474-.196-2.077-.586-.599-.391-1.062-.944-1.39-1.658-.328-.719-.495-1.54-.5-2.46v-1.369c0-.936.165-1.766.493-2.49.328-.724.798-1.28 1.411-1.672.618-.395 1.327-.593 2.128-.593 1.13 0 2.02.306 2.67.919.657.608 1.038 1.45 1.144 2.526h-.897c-.222-1.79-1.194-2.685-2.917-2.685-.955 0-1.718.357-2.287 1.07-.565.715-.847 1.702-.847 2.961v1.289c0 1.216.275 2.186.825 2.91.555.723 1.303 1.085 2.244 1.085.931 0 1.633-.222 2.106-.666.473-.449.765-1.12.876-2.012h.897Zm3.054-1.006v4.292h-.89V20.524h3.59c1.095 0 1.959.28 2.59.84.638.56.956 1.33.956 2.309 0 .99-.306 1.754-.919 2.294-.608.536-1.49.804-2.649.804h-2.678Zm0-.753h2.7c.864 0 1.522-.205 1.976-.615.453-.41.68-.982.68-1.716 0-.728-.227-1.307-.68-1.737-.45-.434-1.088-.656-1.918-.666h-2.758v4.734Zm12.934 2.092h-4.784l-1.086 2.953h-.933l3.988-10.539h.847l3.988 10.539h-.927l-1.093-2.953Zm-4.509-.76h4.227l-2.113-5.74-2.114 5.74ZM28.073 48.236c0-.583-.205-1.044-.615-1.382-.41-.343-1.16-.666-2.25-.97-1.091-.309-1.887-.644-2.39-1.006-.713-.511-1.07-1.182-1.07-2.012 0-.806.33-1.46.991-1.962.666-.506 1.515-.76 2.548-.76.7 0 1.324.136 1.875.406.555.27.984.646 1.288 1.129.304.482.456 1.02.456 1.614h-.898c0-.72-.246-1.296-.738-1.73-.492-.44-1.153-.659-1.983-.659-.806 0-1.448.181-1.925.543-.478.357-.717.825-.717 1.404 0 .536.215.973.644 1.31.43.338 1.117.637 2.063.898.946.256 1.662.524 2.15.803.487.276.854.606 1.1.992.246.386.369.842.369 1.368 0 .83-.333 1.496-.999 1.998-.66.502-1.534.752-2.62.752a5.169 5.169 0 0 1-2.048-.398c-.618-.265-1.088-.637-1.412-1.114a2.894 2.894 0 0 1-.477-1.643h.89c0 .743.277 1.33.832 1.759.555.429 1.293.644 2.215.644.82 0 1.479-.181 1.976-.543.497-.362.745-.842.745-1.44Zm10.611-2.106c0 .97-.168 1.822-.506 2.555-.333.734-.81 1.298-1.433 1.694-.623.396-1.342.593-2.157.593-1.23 0-2.225-.439-2.982-1.317-.758-.883-1.137-2.072-1.137-3.568V45c0-.96.17-1.81.507-2.548.343-.743.825-1.312 1.448-1.708.622-.4 1.339-.6 2.15-.6.81 0 1.524.195 2.142.586.622.39 1.102.943 1.44 1.657.338.714.514 1.542.529 2.483v1.26Zm-.89-1.143c0-1.27-.287-2.263-.861-2.983-.574-.718-1.36-1.078-2.36-1.078-.98 0-1.761.362-2.345 1.086-.579.719-.868 1.725-.868 3.018v1.1c0 1.25.29 2.242.868 2.975.58.729 1.366 1.093 2.36 1.093 1.008 0 1.795-.36 2.36-1.078.564-.724.846-1.73.846-3.019v-1.114Zm10.597 2.555c-.12 1.11-.519 1.959-1.194 2.547-.671.59-1.566.883-2.686.883-.782 0-1.474-.195-2.077-.586-.598-.39-1.062-.943-1.39-1.657-.328-.72-.494-1.54-.5-2.461V44.9c0-.936.165-1.766.493-2.49.328-.724.799-1.281 1.411-1.672.618-.396 1.327-.594 2.128-.594 1.13 0 2.02.307 2.671.92.656.608 1.038 1.45 1.144 2.526h-.898c-.222-1.79-1.194-2.686-2.917-2.686-.955 0-1.718.357-2.287 1.072-.565.714-.847 1.7-.847 2.96v1.288c0 1.216.275 2.186.825 2.91.555.724 1.303 1.086 2.244 1.086.931 0 1.633-.222 2.106-.666.473-.449.765-1.12.876-2.012h.898Z"></path><path fill="currentcolor" fill-rule="evenodd" d="M55.177 36.004H14.824v-.823h40.353v.823Z" clip-rule="evenodd"></path></svg>