<svg xmlns="http://www.w3.org/2000/svg" width="70" height="71" viewBox="0 0 70 71" fill="none"><path fill="currentcolor" d="M62.07 60.772c.365.547.365 1.094 0 1.64-.547.365-1.093.365-1.64 0l-1.504-1.503c-3.1 2.917-6.7 5.195-10.801 6.836-4.102 1.732-8.522 2.597-13.262 2.597-4.557 0-8.886-.865-12.988-2.597-4.102-1.64-7.702-3.92-10.8-6.836L9.57 62.413c-.547.364-1.093.364-1.64 0-.365-.547-.365-1.094 0-1.64l1.504-1.505c-2.917-3.099-5.196-6.699-6.836-10.8C.866 44.365 0 39.945 0 35.206c0-4.558.866-8.887 2.598-12.989 1.64-4.101 3.919-7.701 6.836-10.8L7.93 9.913c-.365-.547-.365-1.094 0-1.64.547-.365 1.093-.365 1.64 0l1.504 1.503c3.1-2.917 6.7-5.195 10.801-6.836C25.977 1.208 30.306.343 34.863.343c4.74 0 9.16.865 13.262 2.597 4.102 1.64 7.702 3.92 10.8 6.836l1.505-1.504c.547-.364 1.093-.364 1.64 0 .365.547.365 1.094 0 1.64l-1.504 1.505c2.917 3.099 5.196 6.699 6.836 10.8C69.134 26.32 70 30.648 70 35.207c0 4.74-.866 9.16-2.598 13.261-1.64 4.102-3.919 7.702-6.836 10.801l1.504 1.504ZM43.34 45.323c-2.188 2.005-5.013 3.053-8.477 3.145-3.19-.092-5.97-1.14-8.34-3.145L12.578 59.268c2.917 2.826 6.29 5.013 10.117 6.563 3.828 1.55 7.884 2.324 12.168 2.324 9.024-.182 16.498-3.145 22.422-8.887L43.34 45.323Zm24.472-9.98c-.182-8.842-3.144-16.316-8.886-22.422L44.98 26.866c2.006 2.37 3.054 5.195 3.145 8.477-.091 3.28-1.14 6.06-3.145 8.34l13.946 13.945a31.638 31.638 0 0 0 6.562-9.98c1.55-3.829 2.325-7.93 2.325-12.306ZM34.864 2.53c-4.284 0-8.34.775-12.168 2.324-3.828 1.55-7.2 3.737-10.117 6.563l13.945 13.945c2.37-2.096 5.15-3.19 8.34-3.281 3.464.091 6.29 1.185 8.477 3.281l13.945-13.945C51.361 5.675 43.887 2.712 34.863 2.53ZM25.02 43.682c-2.097-2.278-3.19-5.058-3.282-8.34.091-3.28 1.185-6.106 3.282-8.476L11.074 12.921C8.25 15.837 6.061 19.21 4.512 23.038c-1.64 3.828-2.461 7.93-2.461 12.305 0 4.374.82 8.476 2.46 12.304a31.638 31.638 0 0 0 6.563 9.98L25.02 43.683Zm9.843-19.277c-3.008.091-5.56 1.14-7.656 3.145-2.096 2.096-3.19 4.694-3.281 7.793.09 3.098 1.185 5.696 3.281 7.792 2.096 2.006 4.648 3.054 7.656 3.145 3.19-.091 5.788-1.14 7.793-3.145 2.097-2.096 3.19-4.694 3.282-7.792-.092-3.1-1.185-5.697-3.282-7.793-2.005-2.006-4.603-3.054-7.793-3.145Z"></path></svg>