<svg xmlns="http://www.w3.org/2000/svg" width="70" height="71" viewBox="0 0 70 71" fill="none"><path fill="currentcolor" d="M33.906 14.561c.091-.638.456-1.002 1.094-1.094.638.092 1.003.456 1.094 1.094v20.235l12.578 8.34c.547.455.684.956.41 1.503-.456.547-.957.684-1.504.41L34.453 36.3c-.364-.273-.592-.592-.684-.956l.137-20.782ZM35 .343c6.563.09 12.441 1.686 17.637 4.785 5.286 3.099 9.479 7.291 12.578 12.578C68.314 22.9 69.909 28.78 70 35.343c-.091 6.562-1.686 12.44-4.785 17.636-3.1 5.287-7.292 9.48-12.578 12.578-5.196 3.1-11.075 4.694-17.637 4.785-6.563-.09-12.441-1.686-17.637-4.785-5.286-3.099-9.479-7.291-12.578-12.578C1.686 47.784.091 41.905 0 35.343.091 28.78 1.686 22.9 4.785 17.706c3.1-5.287 7.292-9.48 12.578-12.578C22.56 2.028 28.438.434 35 .343Zm-32.813 35c.092 6.106 1.596 11.62 4.512 16.542 2.917 4.922 6.836 8.842 11.758 11.758 4.922 2.917 10.436 4.42 16.543 4.512 6.107-.091 11.621-1.595 16.543-4.512 4.922-2.916 8.841-6.836 11.758-11.758 2.916-4.921 4.42-10.436 4.511-16.542-.09-6.107-1.595-11.622-4.511-16.543-2.917-4.922-6.836-8.842-11.758-11.758C46.621 4.125 41.107 2.622 35 2.53c-6.107.091-11.621 1.595-16.543 4.512C13.535 9.958 9.616 13.878 6.699 18.8 3.783 23.72 2.28 29.236 2.188 35.343Z"></path></svg>