<svg xmlns="http://www.w3.org/2000/svg" width="406" height="150" fill="none"><g clip-path="url(#a)"><path fill="#fff" d="M0 0h406v150H0z"/><rect width="170" height="145" x="10.5" y="41.5" fill="url(#b)" rx="7.5"/><path fill="#fff" d="M25.935 94v-5.811h.891l.07.859a2.54 2.54 0 0 1 .28-.333 2.103 2.103 0 0 1 .886-.532c.204-.064.418-.098.644-.102.304 0 .58.043.827.129.25.086.464.22.64.403.175.182.31.415.402.698.097.28.145.612.145 1V94h-.993v-3.668a2.17 2.17 0 0 0-.086-.656 1.059 1.059 0 0 0-.253-.435A1.016 1.016 0 0 0 28.97 89a1.884 1.884 0 0 0-.558-.075c-.183 0-.353.027-.51.08-.158.051-.303.12-.436.21-.107.08-.207.17-.3.274-.09.104-.169.219-.237.344V94h-.993Zm9.173.107c-.408 0-.784-.07-1.127-.21a2.558 2.558 0 0 1-.876-.585 2.68 2.68 0 0 1-.57-.891 3.025 3.025 0 0 1-.203-1.123v-.225c0-.47.075-.888.225-1.257.15-.373.351-.688.602-.945a2.61 2.61 0 0 1 .843-.586c.319-.136.645-.204.977-.204.42 0 .785.073 1.096.22.315.144.577.342.784.596.208.258.362.56.462.908.104.347.156.723.156 1.128v.446h-4.152v.037c.025.283.08.532.167.747.09.215.211.405.365.57.157.175.347.313.57.413.221.1.467.15.735.15.355 0 .67-.071.945-.215a2.05 2.05 0 0 0 .688-.569l.607.473c-.194.293-.483.555-.87.784-.383.226-.858.338-1.424.338Zm-.128-5.21c-.201 0-.39.038-.57.113-.179.072-.34.177-.483.317a1.911 1.911 0 0 0-.365.526c-.097.205-.165.44-.205.71h3.126v-.049c0-.179-.034-.37-.102-.575a1.67 1.67 0 0 0-.284-.537 1.378 1.378 0 0 0-1.117-.505ZM39.706 94l-1.235-5.811h.88l.677 3.706.119.832.145-.833.929-3.706h.639l.924 3.706.156.914.145-.914.644-3.706h.88L43.375 94h-.784l-.907-3.561-.15-.902-.146.902L40.49 94h-.784Zm17.72-2.353c-.047.362-.14.695-.28 1-.14.3-.32.558-.543.773a2.411 2.411 0 0 1-.8.51 2.8 2.8 0 0 1-1.02.177c-.323 0-.616-.044-.881-.134a2.536 2.536 0 0 1-1.235-.95 3.44 3.44 0 0 1-.366-.715 4.3 4.3 0 0 1-.225-.81 5.717 5.717 0 0 1-.075-.86v-1.09c.003-.29.028-.577.075-.86.05-.283.125-.553.225-.811.097-.258.219-.496.365-.714.15-.222.33-.414.538-.575a2.34 2.34 0 0 1 .698-.376c.261-.093.555-.14.88-.14.391 0 .74.061 1.048.183.308.118.573.286.795.505.222.222.4.487.532.795.136.308.225.648.268 1.02h-.993a2.924 2.924 0 0 0-.167-.66 1.818 1.818 0 0 0-.317-.538 1.368 1.368 0 0 0-.489-.36 1.574 1.574 0 0 0-.676-.134c-.237 0-.446.04-.629.118a1.384 1.384 0 0 0-.462.312 1.811 1.811 0 0 0-.333.462 3.149 3.149 0 0 0-.21.558c-.053.197-.092.4-.117.607a5.72 5.72 0 0 0-.032.597v1.1a4.259 4.259 0 0 0 .15 1.203c.054.201.123.39.21.565.085.175.194.33.327.462.133.136.288.243.467.322.18.075.389.113.629.113.261 0 .487-.041.676-.124a1.34 1.34 0 0 0 .49-.349c.132-.147.237-.32.316-.52.079-.205.134-.425.167-.662h.993Zm1.261-.607c0-.418.061-.807.183-1.165.122-.362.297-.675.527-.94.225-.265.5-.473.827-.623.326-.154.693-.23 1.1-.23.413 0 .781.076 1.107.23.33.15.609.358.838.623.226.265.4.578.521.94.122.358.183.747.183 1.165v.119c0 .419-.061.807-.183 1.165s-.295.67-.521.935c-.23.265-.507.472-.832.623-.326.15-.693.225-1.102.225-.411 0-.782-.075-1.111-.225a2.382 2.382 0 0 1-.827-.623 2.779 2.779 0 0 1-.527-.935 3.6 3.6 0 0 1-.182-1.165v-.119Zm.994.119c0 .286.034.56.102.822.068.257.172.485.312.682a1.5 1.5 0 0 0 .515.467c.208.115.45.172.725.172.273 0 .51-.058.715-.172a1.55 1.55 0 0 0 .52-.467c.137-.197.239-.425.307-.682.068-.262.102-.536.102-.822v-.119c0-.282-.036-.553-.107-.81a2.151 2.151 0 0 0-.307-.688 1.55 1.55 0 0 0-.52-.467 1.41 1.41 0 0 0-.72-.178 1.41 1.41 0 0 0-.72.178c-.204.114-.374.27-.51.467-.14.197-.244.426-.312.688a3.167 3.167 0 0 0-.102.81v.119ZM65.573 94v-5.811h.892l.07.859a2.54 2.54 0 0 1 .279-.333 2.103 2.103 0 0 1 .886-.532c.204-.064.42-.098.645-.102.304 0 .58.043.827.129.25.086.464.22.639.403.175.182.31.415.403.698.097.28.145.612.145 1V94h-.994v-3.668a2.17 2.17 0 0 0-.086-.656 1.059 1.059 0 0 0-.252-.435 1.017 1.017 0 0 0-.42-.242 1.884 1.884 0 0 0-.558-.075c-.182 0-.352.027-.51.08-.157.051-.302.12-.435.21-.107.08-.208.17-.3.274-.09.104-.17.219-.237.344V94h-.994Zm8.96-7.219v1.407h2.212v.769h-2.213v3.158c0 .225.029.412.086.558a.862.862 0 0 0 .58.537c.133.036.272.054.42.054a3.55 3.55 0 0 0 .67-.064c.108-.018.208-.036.301-.054l.237-.054.14.704c-.083.05-.183.095-.301.134a3.428 3.428 0 0 1-.387.091c-.14.03-.288.05-.446.065a4.956 4.956 0 0 1-.462.021c-.258 0-.5-.035-.725-.107a1.513 1.513 0 0 1-.58-.355 1.655 1.655 0 0 1-.392-.612 2.68 2.68 0 0 1-.14-.918v-3.158h-1.525v-.768h1.525V86.78h1Zm6.82 7.326c-.408 0-.784-.07-1.127-.21a2.558 2.558 0 0 1-.876-.585 2.678 2.678 0 0 1-.57-.891 3.023 3.023 0 0 1-.203-1.123v-.225c0-.47.075-.888.225-1.257a2.89 2.89 0 0 1 .602-.945 2.61 2.61 0 0 1 .843-.586c.319-.136.645-.204.978-.204.419 0 .784.073 1.095.22.315.144.577.342.785.596.207.258.361.56.461.908.104.347.156.723.156 1.128v.446H79.57v.037c.025.283.08.532.167.747.09.215.211.405.365.57.158.175.347.313.57.413.221.1.467.15.735.15.355 0 .67-.071.946-.215a2.05 2.05 0 0 0 .687-.569l.607.473c-.193.293-.483.555-.87.784-.383.226-.858.338-1.424.338Zm-.128-5.21c-.2 0-.39.038-.57.113-.179.072-.34.177-.483.317a1.911 1.911 0 0 0-.365.526 2.5 2.5 0 0 0-.204.71h3.126v-.049c0-.179-.034-.37-.103-.575a1.673 1.673 0 0 0-.284-.537 1.377 1.377 0 0 0-1.117-.505ZM85.393 94v-5.811h.891l.07.859a2.54 2.54 0 0 1 .28-.333 2.103 2.103 0 0 1 .886-.532c.204-.064.419-.098.644-.102.304 0 .58.043.827.129.25.086.464.22.64.403.175.182.31.415.402.698.097.28.145.612.145 1V94h-.993v-3.668a2.17 2.17 0 0 0-.086-.656 1.059 1.059 0 0 0-.253-.435 1.016 1.016 0 0 0-.419-.242 1.884 1.884 0 0 0-.558-.075c-.183 0-.353.027-.51.08-.158.051-.303.12-.436.21-.107.08-.207.17-.3.274-.09.104-.169.219-.237.344V94h-.993Zm8.959-7.219v1.407h2.212v.769h-2.212v3.158c0 .225.028.412.085.558a.863.863 0 0 0 .58.537c.133.036.273.054.42.054a3.55 3.55 0 0 0 .67-.064c.108-.018.209-.036.302-.054l.236-.054.14.704c-.083.05-.183.095-.301.134a3.431 3.431 0 0 1-.387.091 4.959 4.959 0 0 1-.908.086c-.257 0-.5-.035-.725-.107a1.513 1.513 0 0 1-.58-.355 1.656 1.656 0 0 1-.392-.612 2.68 2.68 0 0 1-.14-.918v-3.158h-1.525v-.768h1.526V86.78h.999Zm8.346 5.242c0-.24-.055-.442-.166-.606a1.464 1.464 0 0 0-.419-.42 2.807 2.807 0 0 0-.57-.279 14.919 14.919 0 0 0-.59-.204 9.248 9.248 0 0 1-.844-.322 3.959 3.959 0 0 1-.773-.462 2.36 2.36 0 0 1-.58-.645 1.71 1.71 0 0 1-.22-.88c0-.337.073-.638.22-.903.15-.265.345-.489.585-.671.24-.183.512-.32.817-.414.304-.096.61-.145.918-.145.34 0 .668.058.983.172.315.111.594.269.838.473.243.204.439.451.585.741.147.29.224.614.231.972h-1.02a2.127 2.127 0 0 0-.167-.612 1.507 1.507 0 0 0-.327-.478 1.398 1.398 0 0 0-.489-.306 1.682 1.682 0 0 0-.634-.113c-.19 0-.376.027-.558.08a1.46 1.46 0 0 0-.478.242c-.144.108-.258.24-.344.398-.083.157-.124.34-.124.547a1 1 0 0 0 .172.575c.111.154.253.285.424.392a2.8 2.8 0 0 0 .548.269c.201.071.389.134.564.188.29.09.58.199.87.328.29.125.555.286.795.483.237.183.426.406.57.671.146.265.22.571.22.919 0 .35-.079.657-.236.918a2.052 2.052 0 0 1-.602.65 2.738 2.738 0 0 1-.838.397 3.494 3.494 0 0 1-.934.13c-.373 0-.74-.063-1.102-.189a2.754 2.754 0 0 1-.934-.542 2.362 2.362 0 0 1-.564-.714 2.209 2.209 0 0 1-.22-.919h1.015c.032.244.098.46.199.65a1.644 1.644 0 0 0 .93.773c.206.065.432.097.676.097.193 0 .383-.023.569-.07.19-.05.358-.127.505-.23.147-.1.266-.228.36-.382.093-.157.139-.344.139-.559Zm2.235-.983c0-.418.06-.807.182-1.165a2.76 2.76 0 0 1 .527-.94c.225-.265.501-.473.827-.623.326-.154.693-.23 1.101-.23.412 0 .78.076 1.106.23.33.15.609.358.838.623.226.265.399.578.521.94.122.358.183.747.183 1.165v.119c0 .419-.061.807-.183 1.165s-.295.67-.521.935a2.44 2.44 0 0 1-.832.623c-.326.15-.693.225-1.101.225-.412 0-.783-.075-1.112-.225a2.375 2.375 0 0 1-.827-.623 2.77 2.77 0 0 1-.527-.935 3.592 3.592 0 0 1-.182-1.165v-.119Zm.993.119c0 .286.034.56.102.822.068.257.172.485.312.682.136.197.308.352.515.467.208.115.45.172.726.172.272 0 .51-.058.714-.172a1.55 1.55 0 0 0 .521-.467c.136-.197.238-.425.306-.682.068-.262.102-.536.102-.822v-.119a3.04 3.04 0 0 0-.107-.81 2.151 2.151 0 0 0-.306-.688 1.56 1.56 0 0 0-.521-.467 1.414 1.414 0 0 0-.72-.178 1.41 1.41 0 0 0-.72.178c-.204.114-.374.27-.51.467-.14.197-.244.426-.312.688a3.167 3.167 0 0 0-.102.81v.119ZM115.648 94l-.059-.8a2.09 2.09 0 0 1-.725.671c-.29.158-.625.236-1.005.236a2.33 2.33 0 0 1-.827-.14 1.616 1.616 0 0 1-.634-.445 2.105 2.105 0 0 1-.408-.763 3.936 3.936 0 0 1-.139-1.117V88.19h.993v3.464c0 .315.025.576.075.784.051.208.126.372.226.494a.8.8 0 0 0 .365.263c.147.05.315.075.505.075.222 0 .421-.025.596-.075.176-.053.328-.127.457-.22.107-.075.2-.165.279-.268.083-.108.151-.224.204-.35V88.19h.999V94h-.902Zm6.585-5.919c.183 0 .372.013.569.038.201.025.351.059.451.102l-.134.972a4.796 4.796 0 0 0-.553-.091 4.38 4.38 0 0 0-.543-.033c-.243 0-.463.03-.66.092a1.52 1.52 0 0 0-.516.257c-.132.1-.249.224-.349.371a2.187 2.187 0 0 0-.242.483V94h-.999v-5.811h.946l.043.778.005.145c.236-.318.519-.569.849-.752a2.28 2.28 0 0 1 1.133-.279Zm5.274 5.22c.179 0 .353-.028.521-.085a1.51 1.51 0 0 0 .457-.242 1.2 1.2 0 0 0 .317-.354.922.922 0 0 0 .129-.452h.94a1.55 1.55 0 0 1-.204.742 2.074 2.074 0 0 1-.521.612 2.557 2.557 0 0 1-1.639.585c-.44 0-.825-.078-1.154-.236a2.34 2.34 0 0 1-.822-.64 2.688 2.688 0 0 1-.5-.917 3.647 3.647 0 0 1-.166-1.107v-.226c0-.383.055-.75.166-1.1.111-.352.278-.661.5-.93.218-.265.492-.476.822-.634.329-.157.714-.236 1.154-.236a2.6 2.6 0 0 1 .946.167c.29.107.54.254.752.44.207.19.37.414.488.671.119.258.178.534.178.828h-.94a1.162 1.162 0 0 0-.119-.495 1.3 1.3 0 0 0-.295-.413 1.372 1.372 0 0 0-.451-.28 1.506 1.506 0 0 0-.559-.102c-.308 0-.567.063-.778.188a1.5 1.5 0 0 0-.505.479c-.129.2-.222.424-.28.67a3.55 3.55 0 0 0-.08.747v.226c0 .254.027.507.08.757.058.247.151.47.28.666.125.2.291.364.499.49.211.12.473.182.784.182Zm6.698.806a2.97 2.97 0 0 1-1.128-.21 2.553 2.553 0 0 1-.875-.585 2.672 2.672 0 0 1-.57-.891 3.025 3.025 0 0 1-.204-1.123v-.225c0-.47.075-.888.226-1.257.15-.373.351-.688.601-.945.247-.255.529-.45.844-.586.318-.136.644-.204.977-.204.419 0 .784.073 1.096.22.315.144.576.342.784.596.208.258.362.56.462.908.104.347.156.723.156 1.128v.446h-4.152v.037c.025.283.08.532.166.747.09.215.212.405.366.57.157.175.347.313.569.413.222.1.467.15.736.15a2.02 2.02 0 0 0 1.633-.784l.607.473c-.194.293-.484.555-.871.784-.383.226-.857.338-1.423.338Zm-.129-5.21c-.2 0-.39.038-.569.113a1.48 1.48 0 0 0-.484.317 1.91 1.91 0 0 0-.365.526c-.096.205-.165.44-.204.71h3.126v-.049c0-.179-.034-.37-.102-.575a1.666 1.666 0 0 0-.285-.537 1.363 1.363 0 0 0-.462-.365 1.425 1.425 0 0 0-.655-.14Zm5.151 1.929c0-.512.039-.994.118-1.445a8.33 8.33 0 0 1 .328-1.257c.136-.383.292-.734.467-1.053.179-.318.367-.601.564-.848.193-.247.389-.459.586-.634.196-.176.384-.313.564-.414l.209.656c-.115.085-.231.19-.349.311a4.383 4.383 0 0 0-.339.408 5.625 5.625 0 0 0-.472.822 5.791 5.791 0 0 0-.376 1.026 7.703 7.703 0 0 0-.226 1.112c-.053.404-.08.84-.08 1.305v.075c0 .448.025.867.075 1.257.05.39.118.75.204 1.08a7.433 7.433 0 0 0 .704 1.691c.136.215.275.405.419.57.146.168.293.311.44.43l-.209.606c-.18-.1-.369-.238-.57-.413a4.397 4.397 0 0 1-.585-.634 6.339 6.339 0 0 1-1.026-1.901 8.15 8.15 0 0 1-.328-1.252 8.38 8.38 0 0 1-.118-1.445v-.053Zm9.942 5.14a1.855 1.855 0 0 1-.902-.242 1.966 1.966 0 0 1-.634-.596 2.682 2.682 0 0 1-.365-.795 3.13 3.13 0 0 1-.124-.865v-.907c0-.516-.123-.89-.371-1.123-.243-.233-.617-.35-1.122-.355v-.778c.505 0 .879-.115 1.122-.344.248-.233.371-.609.371-1.128v-.913c0-.29.038-.585.113-.886.079-.305.202-.577.37-.817.158-.229.364-.415.618-.558.254-.147.562-.226.924-.237l.113.618c-.258.007-.464.068-.618.183-.15.114-.263.26-.338.435-.079.179-.129.38-.151.601a7.013 7.013 0 0 0-.032.66v.914c0 .43-.1.808-.301 1.133-.197.323-.503.568-.918.736.415.165.721.41.918.736.197.322.297.696.301 1.123v.907c0 .222.018.442.054.66a2 2 0 0 0 .188.597c.086.18.2.326.344.44a.92.92 0 0 0 .553.183l-.113.618ZM27.664 111.355c0-.211.064-.392.193-.542.13-.15.325-.226.586-.226.258 0 .453.076.585.226a.769.769 0 0 1 .204.542.741.741 0 0 1-.204.532c-.136.143-.33.215-.585.215-.258 0-.453-.072-.586-.215a.779.779 0 0 1-.193-.532Zm6.606 0c0-.211.065-.392.194-.542.129-.15.324-.226.585-.226.258 0 .453.076.586.226a.769.769 0 0 1 .204.542.742.742 0 0 1-.204.532c-.136.143-.331.215-.586.215-.258 0-.453-.072-.585-.215a.779.779 0 0 1-.194-.532Zm6.607 0c0-.211.064-.392.193-.542.13-.15.324-.226.586-.226.258 0 .453.076.585.226a.769.769 0 0 1 .204.542.741.741 0 0 1-.204.532c-.136.143-.331.215-.585.215-.258 0-.453-.072-.586-.215a.779.779 0 0 1-.193-.532Zm-14.142 19.993a.916.916 0 0 0 .548-.182c.146-.115.265-.262.354-.441.086-.175.147-.374.183-.596.04-.219.059-.439.059-.661v-.907c0-.283.041-.545.123-.785.086-.24.217-.447.393-.623a1.95 1.95 0 0 1 .311-.252 2.44 2.44 0 0 1 .387-.199 2.27 2.27 0 0 1-.398-.204 1.722 1.722 0 0 1-.311-.263 1.696 1.696 0 0 1-.382-.623c-.082-.24-.123-.5-.123-.779v-.913c0-.219-.013-.439-.038-.661a2.055 2.055 0 0 0-.145-.601 1.1 1.1 0 0 0-.344-.435c-.15-.115-.354-.176-.612-.183l.108-.618c.347.011.644.085.891.221.25.136.457.313.618.531.183.247.313.525.392.833.082.308.124.612.124.913v.913c0 .215.02.405.059.569.043.161.105.301.188.419.118.169.28.292.488.371.212.075.464.113.758.113v.778a2.379 2.379 0 0 0-.677.097c-.19.057-.346.149-.467.274a1.129 1.129 0 0 0-.264.457 2.178 2.178 0 0 0-.085.65v.907c0 .287-.04.575-.119.865-.078.294-.2.56-.365.8-.168.24-.38.437-.634.591a1.79 1.79 0 0 1-.907.242l-.113-.618Zm9.431-4.469c0 .512-.04.994-.123 1.445a7.697 7.697 0 0 1-.322 1.252 6.496 6.496 0 0 1-.473 1.052c-.175.319-.36.602-.553.849a4.444 4.444 0 0 1-.596.634 3.258 3.258 0 0 1-.564.413l-.21-.607c.15-.111.303-.254.457-.429.154-.176.3-.378.44-.607.133-.233.26-.496.381-.79.126-.29.228-.608.307-.956.082-.322.145-.669.188-1.042.046-.376.07-.777.07-1.203v-.075c0-.483-.031-.922-.092-1.316a9.474 9.474 0 0 0-.193-1.004 6.154 6.154 0 0 0-.376-1.058 6.273 6.273 0 0 0-.451-.822 3.522 3.522 0 0 0-.366-.478 3.336 3.336 0 0 0-.365-.355l.21-.607c.179.101.369.238.569.414.2.175.398.387.59.634a6.246 6.246 0 0 1 1.026 1.901c.13.376.235.784.318 1.225.086.436.129.929.129 1.477v.053Z"/><g clip-path="url(#c)"><g clip-path="url(#d)"><path fill="#fff" fill-rule="evenodd" d="M32.498 58A7.496 7.496 0 0 0 25 65.498a7.504 7.504 0 0 0 5.127 7.115c.373.07.511-.161.511-.364 0-.18-.005-.648-.01-1.274-2.084.45-2.526-1.004-2.526-1.004-.34-.865-.833-1.095-.833-1.095-.681-.465.05-.456.05-.456.75.055 1.151.773 1.151.773.668 1.146 1.754.815 2.182.622.069-.484.262-.815.474-1.004-1.666-.188-3.415-.833-3.415-3.705 0-.819.29-1.486.773-2.011-.078-.189-.336-.953.074-1.984 0 0 .63-.202 2.062.769a7.107 7.107 0 0 1 3.756 0c1.43-.971 2.061-.769 2.061-.769.41 1.031.152 1.795.074 1.984.479.525.768 1.192.768 2.011 0 2.882-1.753 3.512-3.424 3.7.267.23.511.691.511 1.39 0 1.004-.01 1.81-.01 2.058 0 .203.134.433.516.359a7.498 7.498 0 0 0 5.123-7.11A7.497 7.497 0 0 0 32.498 58Z" clip-rule="evenodd"/></g></g><rect width="170" height="145" x="10.5" y="41.5" stroke="#2E51ED" rx="7.5"/><rect width="230" height="173" x="164.5" y="23.5" fill="#fff" stroke="#2E51ED" rx="7.5"/><circle cx="179.1" cy="37" r="4.1" fill="#CDE2FF"/><circle cx="193.3" cy="37" r="4.1" fill="#CDE2FF"/><circle cx="207.5" cy="37" r="4.1" fill="#CDE2FF"/><path stroke="#2E51ED" stroke-linecap="round" d="M165 50h229"/><path fill="#2E51ED" fill-rule="evenodd" d="M194 66.5a9.5 9.5 0 0 0-9.5-9.5 9.5 9.5 0 0 0-9.5 9.5c0 5 3.864 9.1 8.769 9.472V66.5H194Z" clip-rule="evenodd"/><circle cx="203.5" cy="66.5" r="9.5" fill="#2E51ED"/><path fill="#DEFFFE" stroke="#2E51ED" d="M175.5 102.5h209v38h-209z"/><path fill="#2E51ED" d="M175 87h29v15h-29z"/><path fill="#fff" d="M181.44 98v-6.06h-2.32v-1.06h5.94v1.06h-2.32V98h-1.3Zm4.412 0v-5.05h1.25V98h-1.25Zm-.06-7.34h1.39v1.23h-1.39v-1.23Zm2.037 3.23v-.94h3.56v.94h-3.56Zm3.56 3.07v.99a1.714 1.714 0 0 1-.4.09c-.126.02-.263.03-.41.03-.566 0-1.006-.16-1.32-.48-.306-.32-.46-.78-.46-1.38v-4.49l1.25-.42v4.85c0 .227.037.407.11.54a.63.63 0 0 0 .29.27c.127.053.267.08.42.08.087 0 .17-.007.25-.02.08-.013.17-.033.27-.06Zm.849 1.04v-7.36h1.25V98h-1.25Zm6.938-.56c-.24.2-.537.357-.89.47-.347.107-.7.16-1.06.16-.547 0-1.02-.103-1.42-.31a2.155 2.155 0 0 1-.91-.9c-.213-.393-.32-.86-.32-1.4 0-.52.103-.977.31-1.37.207-.4.493-.71.86-.93.367-.227.79-.34 1.27-.34.467 0 .867.103 1.2.31.333.2.59.49.77.87.187.38.28.83.28 1.35v.19h-3.59l.01-.67h2.84l-.34.34c.007-.487-.09-.857-.29-1.11-.193-.253-.477-.38-.85-.38-.4 0-.71.143-.93.43-.22.28-.33.683-.33 1.21 0 .6.123 1.043.37 1.33.247.28.62.42 1.12.42.273 0 .54-.043.8-.13.267-.093.513-.227.74-.4l.36.86Z"/><path fill="#2036A1" d="M184.776 116.208h1.536V128h-1.536v-11.792Zm1.104 0h6.832v1.44h-6.832v-1.44Zm0 4.464h4.992v1.44h-4.992v-1.44Zm0 5.888h6.88V128h-6.88v-1.44Zm14.71-10.864h1.44V128h-1.44v-12.304Zm-3.072 3.536c.864 0 1.584.208 2.16.624.587.416 1.014.992 1.28 1.728l-.368 2.096c0-.981-.245-1.755-.736-2.32-.49-.576-1.157-.864-2-.864-.544 0-1.029.133-1.456.4-.416.267-.741.64-.976 1.12-.234.48-.352 1.035-.352 1.664s.118 1.184.352 1.664c.235.48.56.853.976 1.12.427.267.912.4 1.456.4.843 0 1.51-.283 2-.848.491-.576.736-1.355.736-2.336l.368 2.144c-.266.747-.693 1.328-1.28 1.744-.576.416-1.296.624-2.16.624-.778 0-1.472-.181-2.08-.544a3.76 3.76 0 0 1-1.392-1.568c-.33-.683-.496-1.472-.496-2.368 0-.896.166-1.685.496-2.368.331-.683.795-1.205 1.392-1.568.608-.363 1.302-.544 2.08-.544Zm7.767.256c.288 0 .528-.064.72-.192V128h-1.44v-8.704c.202.128.442.192.72.192Zm0-3.12c.288 0 .522.096.704.288a.99.99 0 0 1 .272.704.99.99 0 0 1-.272.704.926.926 0 0 1-.704.288.977.977 0 0 1-.72-.288.985.985 0 0 1-.272-.704c0-.277.09-.512.272-.704a.977.977 0 0 1 .72-.288Zm2.619 3.04h5.136v1.232h-5.136v-1.232Zm1.712-2.752h1.44V128h-1.44v-11.344Zm9.672 2.752h1.456l2.832 7.04-.768 1.696-3.52-8.736Zm6.784 0h1.424l-4.816 11.44h-1.424l4.816-11.44Zm6.236-.176c.875 0 1.638.192 2.288.576a3.882 3.882 0 0 1 1.504 1.6c.352.683.528 1.451.528 2.304 0 .853-.176 1.621-.528 2.304a3.882 3.882 0 0 1-1.504 1.6c-.65.384-1.413.576-2.288.576-.874 0-1.637-.192-2.288-.576a4.028 4.028 0 0 1-1.52-1.584c-.352-.683-.528-1.456-.528-2.32 0-.853.176-1.621.528-2.304a3.999 3.999 0 0 1 1.52-1.6c.651-.384 1.414-.576 2.288-.576Zm0 1.376c-.565 0-1.061.128-1.488.384a2.622 2.622 0 0 0-.976 1.088c-.234.459-.352 1.003-.352 1.632s.118 1.179.352 1.648c.235.459.56.816.976 1.072.427.256.923.384 1.488.384.555 0 1.04-.128 1.456-.384.427-.256.758-.619.992-1.088.235-.469.352-1.013.352-1.632s-.117-1.163-.352-1.632a2.579 2.579 0 0 0-.992-1.088c-.416-.256-.901-.384-1.456-.384Zm5.831-1.2h1.424v4.544c0 .907.192 1.611.576 2.112.384.491.89.736 1.52.736.426 0 .805-.117 1.136-.352.33-.235.592-.565.784-.992.192-.427.288-.917.288-1.472l.24 2.032a2.847 2.847 0 0 1-.976 1.568c-.491.405-1.11.608-1.856.608-.619 0-1.163-.155-1.632-.464-.47-.309-.838-.763-1.104-1.36-.267-.597-.4-1.317-.4-2.16v-4.8Zm5.712 0h1.44V128h-1.44v-8.592Zm3.871 0h1.44V128h-1.44v-8.592Zm4.688-.176v1.536h-.544c-.566 0-1.051.112-1.456.336a2.2 2.2 0 0 0-.928.992c-.214.427-.32.939-.32 1.536l-.352-1.68c.149-.821.522-1.477 1.12-1.968.608-.501 1.434-.752 2.48-.752Zm10.316 0c.672 0 1.259.123 1.76.368.502.235.88.56 1.136.976.267.416.4.88.4 1.392h-1.488a1.301 1.301 0 0 0-.512-1.024c-.33-.277-.768-.416-1.312-.416s-.965.107-1.264.32c-.288.213-.432.485-.432.816 0 .299.091.539.272.72.192.181.56.331 1.104.448l1.376.304c.598.128 1.072.309 1.424.544.363.235.624.517.784.848.16.32.24.693.24 1.12 0 .779-.293 1.397-.88 1.856-.586.459-1.408.688-2.464.688-1.162 0-2.053-.261-2.672-.784-.618-.533-.928-1.221-.928-2.064h1.472c.011.469.198.848.56 1.136.374.277.918.416 1.632.416.587 0 1.03-.112 1.328-.336.31-.235.464-.533.464-.896 0-.341-.112-.608-.336-.8-.213-.192-.592-.347-1.136-.464l-1.456-.304c-.81-.181-1.397-.475-1.76-.88-.352-.416-.528-.933-.528-1.552 0-.459.123-.869.368-1.232.256-.373.624-.667 1.104-.88.48-.213 1.062-.32 1.744-.32Zm6.137.256c.288 0 .528-.064.72-.192V128h-1.44v-8.704c.202.128.442.192.72.192Zm0-3.12c.288 0 .522.096.704.288a.99.99 0 0 1 .272.704.99.99 0 0 1-.272.704.926.926 0 0 1-.704.288.977.977 0 0 1-.72-.288.985.985 0 0 1-.272-.704c0-.277.09-.512.272-.704a.977.977 0 0 1 .72-.288Zm2.619 3.04h5.136v1.232h-5.136v-1.232Zm1.712-2.752h1.44V128h-1.44v-11.344Zm8.347 2.592c.843 0 1.584.181 2.224.544.64.352 1.141.859 1.504 1.52.363.651.544 1.413.544 2.288v.544h-7.92v-1.184h7.328l-.912.752v-.336c0-.565-.123-1.056-.368-1.472a2.363 2.363 0 0 0-.992-.976 2.921 2.921 0 0 0-1.408-.336c-.512 0-.981.128-1.408.384a2.58 2.58 0 0 0-.976 1.024 2.84 2.84 0 0 0-.352 1.392v.48c0 .587.112 1.104.336 1.552.235.437.56.779.976 1.024.427.245.917.368 1.472.368.587 0 1.083-.107 1.488-.32.416-.213.725-.512.928-.896h1.568a4.014 4.014 0 0 1-.848 1.36 3.872 3.872 0 0 1-1.36.896 4.955 4.955 0 0 1-1.776.304c-.853 0-1.605-.181-2.256-.544a3.91 3.91 0 0 1-1.52-1.568c-.363-.683-.544-1.472-.544-2.368 0-.885.176-1.664.528-2.336a3.807 3.807 0 0 1 1.52-1.552c.651-.363 1.392-.544 2.224-.544Zm10.747.16h1.536l2.768 7.312h-.24l2.768-7.312h1.52L297.28 128h-1.632l-3.36-8.592Zm10.45.08c.288 0 .528-.064.72-.192V128h-1.44v-8.704c.202.128.442.192.72.192Zm0-3.12c.288 0 .522.096.704.288a.99.99 0 0 1 .272.704.99.99 0 0 1-.272.704.926.926 0 0 1-.704.288.977.977 0 0 1-.72-.288.985.985 0 0 1-.272-.704c0-.277.09-.512.272-.704a.977.977 0 0 1 .72-.288Zm6.254 2.864c.672 0 1.259.123 1.76.368.501.235.88.56 1.136.976.267.416.4.88.4 1.392H310.8a1.304 1.304 0 0 0-.512-1.024c-.331-.277-.768-.416-1.312-.416s-.965.107-1.264.32c-.288.213-.432.485-.432.816 0 .299.091.539.272.72.192.181.56.331 1.104.448l1.376.304c.597.128 1.072.309 1.424.544.363.235.624.517.784.848.16.32.24.693.24 1.12 0 .779-.293 1.397-.88 1.856-.587.459-1.408.688-2.464.688-1.163 0-2.053-.261-2.672-.784-.619-.533-.928-1.221-.928-2.064h1.472c.011.469.197.848.56 1.136.373.277.917.416 1.632.416.587 0 1.029-.112 1.328-.336.309-.235.464-.533.464-.896 0-.341-.112-.608-.336-.8-.213-.192-.592-.347-1.136-.464l-1.456-.304c-.811-.181-1.397-.475-1.76-.88-.352-.416-.528-.933-.528-1.552 0-.459.123-.869.368-1.232.256-.373.624-.667 1.104-.88.48-.213 1.061-.32 1.744-.32Zm5.287.176h1.424v4.544c0 .907.192 1.611.576 2.112.384.491.891.736 1.52.736a1.91 1.91 0 0 0 1.136-.352c.331-.235.592-.565.784-.992.192-.427.288-.917.288-1.472l.24 2.032a2.836 2.836 0 0 1-.976 1.568c-.49.405-1.109.608-1.856.608-.618 0-1.162-.155-1.632-.464-.469-.309-.837-.763-1.104-1.36-.266-.597-.4-1.317-.4-2.16v-4.8Zm5.712 0h1.44V128h-1.44v-8.592Zm7.282-.16c1.163 0 2.059.32 2.688.96.629.629.944 1.515.944 2.656V128h-1.44v-5.36c0-.651-.192-1.152-.576-1.504-.373-.363-.907-.544-1.6-.544-.64 0-1.136.133-1.488.4-.352.256-.565.619-.64 1.088h-1.488c.043-.523.208-.997.496-1.424.288-.427.693-.768 1.216-1.024.533-.256 1.163-.384 1.888-.384Zm2.656 3.264.288 1.184-3.392.528c-.747.117-1.269.299-1.568.544a1.15 1.15 0 0 0-.448.928c0 .331.139.597.416.8.288.203.683.304 1.184.304.555 0 1.067-.112 1.536-.336.469-.235.837-.56 1.104-.976.277-.427.416-.907.416-1.44l.56.592c0 .651-.155 1.248-.464 1.792a3.274 3.274 0 0 1-1.344 1.264c-.587.309-1.264.464-2.032.464-.875 0-1.573-.213-2.096-.64-.512-.437-.768-1.013-.768-1.728 0-.715.251-1.307.752-1.776.512-.48 1.317-.805 2.416-.976l3.44-.528Zm3.246-6.816h1.44V128h-1.44v-12.304Zm4 0h1.44V128h-1.44v-12.304Zm2.817 3.712h1.456l2.832 7.04-.768 1.696-3.52-8.736Zm6.784 0h1.424l-4.816 11.44h-1.424l4.816-11.44Z"/><path fill="#05BDBA" d="M372 129.25c-.042.458-.292.708-.75.75a3.73 3.73 0 0 1-1.844-.469 3.951 3.951 0 0 1-1.406-1.219 3.951 3.951 0 0 1-1.406 1.219 3.73 3.73 0 0 1-1.844.469c-.458-.042-.708-.292-.75-.75.042-.458.292-.708.75-.75.708-.021 1.302-.26 1.781-.719.459-.479.698-1.073.719-1.781v-3.25h-1c-.458-.042-.708-.292-.75-.75.042-.458.292-.708.75-.75h1V118c-.021-.708-.26-1.302-.719-1.781-.479-.459-1.073-.698-1.781-.719-.458-.042-.708-.292-.75-.75.042-.458.292-.708.75-.75a3.73 3.73 0 0 1 1.844.469 3.951 3.951 0 0 1 1.406 1.219 3.951 3.951 0 0 1 1.406-1.219 3.73 3.73 0 0 1 1.844-.469c.458.042.708.292.75.75-.042.458-.292.708-.75.75-.708.021-1.302.26-1.781.719-.459.479-.698 1.073-.719 1.781v3.25h1c.458.042.708.292.75.75-.042.458-.292.708-.75.75h-1V126c.021.708.26 1.302.719 1.781.479.459 1.073.698 1.781.719.458.042.708.292.75.75Z"/><rect width="29" height="6" x="356" y="63" fill="#CDE2FF" rx="3"/><rect width="29" height="6" x="320" y="63" fill="#CDE2FF" rx="3"/></g><defs><clipPath id="a"><path fill="#fff" d="M0 0h406v150H0z"/></clipPath><clipPath id="c"><path fill="#fff" d="M25 58h15v15H25z"/></clipPath><clipPath id="d"><path fill="#fff" d="M25 58h15v14.627H25z"/></clipPath><linearGradient id="b" x1="90.926" x2="365.242" y1="107" y2="-23.522" gradientUnits="userSpaceOnUse"><stop stop-color="#2036A1"/><stop offset="1" stop-color="#5CEBDF"/></linearGradient></defs></svg>