<svg xmlns="http://www.w3.org/2000/svg" width="406" height="150" fill="none"><g clip-path="url(#a)"><path fill="#fff" d="M0 0h406v150H0z"/><g filter="url(#b)"><circle cx="113" cy="117" r="74" fill="#EDF4FF"/></g><g filter="url(#c)"><circle cx="284" cy="97" r="47" fill="#DEFFFE"/></g><rect width="230" height="173" x="72.5" y="25.5" fill="#fff" stroke="#2E51ED" rx="7.5"/><circle cx="87.1" cy="40" r="4.1" fill="#CDE2FF"/><circle cx="101.3" cy="40" r="4.1" fill="#CDE2FF"/><circle cx="115.5" cy="40" r="4.1" fill="#CDE2FF"/><path stroke="#2E51ED" d="M73 53h228"/><rect width="147.081" height="28.067" x="173.5" y="44.5" fill="#8EFBF7" stroke="#32E6E2" rx="6.186"/><path fill="#2036A1" d="M208.514 62.723h-1.487l3.682-8.14h1.2l3.681 8.14h-1.463l-2.995-6.996h.4l-3.018 6.996Zm.137-1.91.56-1.142h4.15l.537 1.143h-5.247Zm13.01 1.91h-1.406V61.26l.137.206a1.748 1.748 0 0 1-.743.994c-.358.229-.781.343-1.269.343-.503 0-.949-.122-1.338-.366a2.505 2.505 0 0 1-.891-1.063c-.214-.457-.32-.987-.32-1.589s.102-1.128.308-1.578c.214-.45.515-.796.903-1.04a2.466 2.466 0 0 1 1.338-.366c.488 0 .911.122 1.269.366.366.244.614.572.743.983l-.16.172v-4.013h1.429v8.414Zm-2.892-1.017c.472 0 .838-.164 1.097-.492.259-.328.389-.796.389-1.406 0-.602-.13-1.067-.389-1.395-.259-.328-.625-.491-1.097-.491-.48 0-.854.163-1.121.491-.266.32-.4.778-.4 1.372 0 .61.134 1.082.4 1.418.267.335.641.503 1.121.503Zm9.742 1.017h-1.406V61.26l.137.206c-.13.426-.378.758-.743.994-.359.229-.782.343-1.269.343-.503 0-.949-.122-1.338-.366a2.514 2.514 0 0 1-.892-1.063c-.213-.457-.32-.987-.32-1.589s.103-1.128.309-1.578c.213-.45.514-.796.903-1.04a2.466 2.466 0 0 1 1.338-.366c.487 0 .91.122 1.269.366.365.244.613.572.743.983l-.16.172v-4.013h1.429v8.414Zm-2.893-1.017c.473 0 .839-.164 1.098-.492.259-.328.389-.796.389-1.406 0-.602-.13-1.067-.389-1.395-.259-.328-.625-.491-1.098-.491-.48 0-.853.163-1.12.491-.267.32-.4.778-.4 1.372 0 .61.133 1.082.4 1.418.267.335.64.503 1.12.503Zm9.37 1.097c-.503 0-.949-.118-1.338-.354a2.437 2.437 0 0 1-.903-1.03c-.206-.449-.309-.975-.309-1.577 0-.61.107-1.14.321-1.589.213-.457.51-.812.891-1.063.389-.26.835-.389 1.338-.389.488 0 .911.122 1.269.366.366.236.613.568.743.995l-.137.08V56.95h1.406v5.773h-1.406V61.42l.137.046c-.13.426-.377.758-.743.994-.358.229-.781.343-1.269.343Zm.389-1.097c.472 0 .838-.164 1.097-.492.259-.328.389-.793.389-1.395 0-.617-.13-1.086-.389-1.406-.259-.328-.625-.491-1.097-.491-.481 0-.854.167-1.121.503-.267.335-.4.807-.4 1.417 0 .595.133 1.056.4 1.383.267.32.64.48 1.121.48Zm7.231 1.017v-8.14h2.995c.892 0 1.651.16 2.276.48.625.32 1.101.785 1.429 1.395.335.602.503 1.33.503 2.184 0 .861-.168 1.596-.503 2.206a3.269 3.269 0 0 1-1.441 1.395c-.625.32-1.379.48-2.264.48h-2.995Zm1.475-1.2h1.429c.937 0 1.639-.24 2.104-.72.472-.48.708-1.2.708-2.161 0-1.906-.937-2.858-2.812-2.858h-1.429v5.739Zm9.132 1.28c-.503 0-.949-.118-1.338-.354a2.424 2.424 0 0 1-.903-1.03c-.206-.449-.309-.975-.309-1.577 0-.61.107-1.14.32-1.589.214-.457.511-.812.892-1.063.389-.26.835-.389 1.338-.389.487 0 .91.122 1.269.366.365.236.613.568.743.995l-.138.08V56.95h1.407v5.773h-1.407V61.42l.138.046c-.13.426-.378.758-.743.994-.359.229-.782.343-1.269.343Zm.388-1.097c.473 0 .839-.164 1.098-.492.259-.328.388-.793.388-1.395 0-.617-.129-1.086-.388-1.406-.259-.328-.625-.491-1.098-.491-.48 0-.853.167-1.12.503-.267.335-.4.807-.4 1.417 0 .595.133 1.056.4 1.383.267.32.64.48 1.12.48Zm3.5-3.682V56.95h4.07v1.074h-4.07Zm4.07 3.51v1.132a1.98 1.98 0 0 1-.457.103 3.02 3.02 0 0 1-.469.034c-.648 0-1.151-.183-1.509-.549-.351-.365-.526-.891-.526-1.577v-5.133l1.429-.48v5.544c0 .26.042.465.126.617a.719.719 0 0 0 .331.31c.145.06.305.09.481.09.099 0 .194-.007.285-.022.092-.016.195-.038.309-.069Zm2.994 1.27a2.52 2.52 0 0 1-1.337-.355 2.424 2.424 0 0 1-.903-1.03c-.206-.449-.309-.975-.309-1.577 0-.61.107-1.14.32-1.589.213-.457.511-.812.892-1.063.388-.26.834-.389 1.337-.389.488 0 .911.122 1.269.366.366.236.614.568.743.995l-.137.08V56.95h1.406v5.773h-1.406V61.42l.137.046a1.748 1.748 0 0 1-.743.994c-.358.229-.781.343-1.269.343Zm.389-1.098c.473 0 .838-.164 1.098-.492.259-.328.388-.793.388-1.395 0-.617-.129-1.086-.388-1.406-.26-.328-.625-.491-1.098-.491-.48 0-.854.167-1.12.503-.267.335-.4.807-.4 1.417 0 .595.133 1.056.4 1.383.266.32.64.48 1.12.48Zm9.987 1.109c-.419 0-.819-.035-1.2-.103a5.326 5.326 0 0 1-1.075-.332 3.772 3.772 0 0 1-.869-.526l.492-1.074c.411.304.83.526 1.257.663.427.137.896.206 1.406.206.564 0 .999-.1 1.304-.298.312-.198.468-.476.468-.834a.712.712 0 0 0-.205-.526c-.138-.145-.343-.267-.618-.366a8.695 8.695 0 0 0-1.017-.286 8.702 8.702 0 0 1-1.269-.331 3.664 3.664 0 0 1-.915-.48 1.9 1.9 0 0 1-.56-.652 2.128 2.128 0 0 1-.183-.915c0-.48.13-.907.389-1.28.259-.374.621-.663 1.086-.87.472-.212 1.025-.32 1.658-.32.381 0 .75.039 1.108.115.366.076.702.187 1.007.332.304.137.567.308.788.514l-.503 1.075a3.762 3.762 0 0 0-2.389-.87c-.526 0-.941.108-1.246.321-.305.213-.457.51-.457.892 0 .22.061.404.182.549.13.144.324.266.584.365.266.1.605.199 1.017.298.473.099.892.213 1.258.343a3.8 3.8 0 0 1 .948.468c.26.176.454.389.584.64.137.244.205.538.205.88 0 .489-.129.915-.388 1.281-.26.358-.633.637-1.121.835-.48.19-1.055.286-1.726.286Zm6.9-.012c-.602 0-1.124-.122-1.567-.366a2.523 2.523 0 0 1-1.006-1.029c-.236-.45-.354-.983-.354-1.6 0-.61.118-1.14.354-1.59a2.49 2.49 0 0 1 1.006-1.051c.443-.244.965-.366 1.567-.366.587 0 1.097.122 1.532.366.442.244.781.594 1.017 1.052.244.45.366.98.366 1.589 0 .617-.122 1.15-.366 1.6a2.494 2.494 0 0 1-1.017 1.03c-.435.243-.945.365-1.532.365Zm0-1.097c.472 0 .834-.157 1.086-.47.259-.32.389-.795.389-1.428 0-.625-.13-1.094-.389-1.406-.252-.32-.614-.48-1.086-.48-.48 0-.854.16-1.121.48-.259.312-.388.78-.388 1.406 0 .633.129 1.109.388 1.429.259.312.633.469 1.121.469Zm5.999 1.097c-.708 0-1.242-.194-1.6-.583-.351-.396-.526-.99-.526-1.783V56.95h1.429v3.498c0 .42.088.728.263.926.175.198.438.297.789.297.419 0 .754-.137 1.006-.411.251-.275.377-.64.377-1.098V56.95h1.441v5.773h-1.395v-1.189l.149-.011c-.168.419-.42.739-.755.96-.335.214-.728.32-1.178.32Zm4.479-.08v-4.138c0-.267-.008-.538-.023-.812a7.3 7.3 0 0 0-.069-.823h1.349l.16 1.486-.16-.08c.099-.51.324-.896.675-1.155a1.95 1.95 0 0 1 1.189-.388c.114 0 .221.007.32.022.099.016.187.038.263.069l-.023 1.303a1.932 1.932 0 0 0-.754-.148c-.343 0-.625.068-.846.206a1.345 1.345 0 0 0-.492.56c-.107.228-.16.487-.16.777v3.121h-1.429Zm6.755.08c-.603 0-1.125-.118-1.567-.354a2.517 2.517 0 0 1-1.006-1.03c-.228-.449-.343-.975-.343-1.577 0-.61.122-1.143.366-1.6a2.593 2.593 0 0 1 1.04-1.064c.45-.251.976-.377 1.578-.377.404 0 .797.065 1.178.194.388.13.705.31.949.538l-.412 1.006a2.67 2.67 0 0 0-.777-.446 2.261 2.261 0 0 0-.824-.16c-.503 0-.903.16-1.2.48-.29.32-.434.789-.434 1.406 0 .61.144 1.075.434 1.395.29.32.694.48 1.212.48.267 0 .537-.05.812-.148.274-.107.533-.263.777-.47l.412 1.007a2.651 2.651 0 0 1-.972.537 4.068 4.068 0 0 1-1.223.183Zm7.875-.72a2.995 2.995 0 0 1-1.017.537c-.396.122-.8.183-1.212.183-.625 0-1.166-.118-1.623-.354a2.464 2.464 0 0 1-1.041-1.03c-.244-.449-.366-.982-.366-1.6 0-.594.119-1.116.355-1.566.236-.457.564-.812.983-1.063.419-.26.903-.389 1.452-.389.534 0 .991.118 1.372.355.381.228.674.56.88.994.214.435.32.95.32 1.544v.217h-4.104l.011-.766h3.247l-.388.388c.007-.556-.103-.979-.332-1.269-.221-.29-.545-.434-.972-.434-.457 0-.811.164-1.063.492-.251.32-.377.78-.377 1.383 0 .686.141 1.193.423 1.52.282.32.709.48 1.28.48.313 0 .618-.049.915-.148a3.03 3.03 0 0 0 .846-.457l.411.983ZM183.968 58.977c.018-1.317.338-2.498.961-3.54a6.955 6.955 0 0 1 2.525-2.526c1.043-.622 2.223-.943 3.541-.96 1.317.017 2.498.338 3.541.96a6.962 6.962 0 0 1 2.525 2.525c.622 1.043.943 2.224.961 3.541-.018 1.318-.339 2.498-.961 3.541a6.962 6.962 0 0 1-2.525 2.526c-1.043.622-2.224.942-3.541.96-1.318-.018-2.498-.338-3.541-.96a6.955 6.955 0 0 1-2.525-2.526c-.623-1.043-.943-2.223-.961-3.54Zm7.027 3.075c.402-.037.622-.257.659-.66v-1.756h1.756c.403-.037.623-.256.659-.659-.036-.402-.256-.622-.659-.658h-1.756v-1.757c-.037-.403-.257-.622-.659-.66-.403.038-.622.257-.659.66v1.757h-1.757c-.402.036-.622.256-.658.658.036.403.256.622.658.659h1.757v1.757c.037.402.256.622.659.659Z"/><path fill="#fff" stroke="#9CBEF6" d="M327.089 72.524v-.5h11.903c.427-.039.735-.17.96-.365.226-.196.408-.49.519-.923.069-.45.011-.794-.13-1.062-.143-.27-.398-.515-.816-.718l-22.828-9.338a1.653 1.653 0 0 0-.906-.09c-.27.054-.546.19-.831.432-.242.285-.378.561-.432.831-.055.275-.032.573.09.906l9.338 22.828c.203.418.448.673.718.816.269.142.613.199 1.064.13.455-.112.765-.3.971-.536.204-.235.341-.558.38-1.007V72.524Z"/><path stroke="#2E51ED" d="m347.038 105.707-18.331 18.331 18.33 18.331 18.332-18.331z"/><path fill="#2E51ED" d="m347.038 112.615-11.423 11.423 11.423 11.422 11.423-11.422zM279.154 78h-4.577v26.924h4.577zM273.501 78h-4.846v26.924h4.846zM267.577 78H263v26.924h4.577zM295.154 117c8.922 0 16.155 7.233 16.155 16.154H279c0-8.921 7.233-16.154 16.154-16.154Z"/><circle cx="3.662" cy="3.662" r="3.662" fill="#2E51ED" transform="matrix(-1 0 0 1 323.323 103)"/><path fill="#2E51ED" fill-rule="evenodd" d="M228 96.493a3.493 3.493 0 0 1 6.985 0h2a5.492 5.492 0 1 0-10.985 0h2Zm3.443 5.492h.1-.1Z" clip-rule="evenodd"/><circle cx="3.662" cy="3.662" r="3.162" stroke="#2E51ED" transform="matrix(-1 0 0 1 333.323 27)"/><path stroke="#2E51ED" d="M271.243 168.769c3.139 3.139 8.267 3.115 11.454-.072 3.187-3.187 3.211-8.315.072-11.454l-36.845-36.845c-3.139-3.139-8.267-3.115-11.454.072-3.187 3.187-3.211 8.315-.072 11.454l36.845 36.845Z"/><circle cx="96.89" cy="111" r="9.89" fill="#CDE2FF"/><path fill="#2E51ED" d="M92.538 106.648h8.703v8.703h-8.703z"/><circle cx="96.89" cy="84.89" r="9.89" fill="#CDE2FF"/><path fill="#2E51ED" d="m96.89 79.747 5.139 8.901H91.751l5.14-8.9Z"/><circle cx="96.89" cy="137.11" r="9.89" fill="#CDE2FF"/><circle cx="96.89" cy="137.11" r="4.352" fill="#2E51ED"/><rect width="90" height="7" x="113" y="81" fill="#CDE2FF" rx="3.5"/><rect width="76" height="7" x="113" y="107" fill="#CDE2FF" rx="3.5"/><rect width="100" height="6" x="113" y="134" fill="#CDE2FF" rx="3"/></g><defs><filter id="b" width="228" height="228" x="-1" y="3" color-interpolation-filters="sRGB" filterUnits="userSpaceOnUse"><feFlood flood-opacity="0" result="BackgroundImageFix"/><feBlend in="SourceGraphic" in2="BackgroundImageFix" result="shape"/><feGaussianBlur result="effect1_foregroundBlur_3671_10858" stdDeviation="20"/></filter><filter id="c" width="214" height="214" x="177" y="-10" color-interpolation-filters="sRGB" filterUnits="userSpaceOnUse"><feFlood flood-opacity="0" result="BackgroundImageFix"/><feBlend in="SourceGraphic" in2="BackgroundImageFix" result="shape"/><feGaussianBlur result="effect1_foregroundBlur_3671_10858" stdDeviation="30"/></filter><clipPath id="a"><path fill="#fff" d="M0 0h406v150H0z"/></clipPath></defs></svg>