<svg xmlns="http://www.w3.org/2000/svg" width="406" height="150" fill="none"><g clip-path="url(#a)"><path fill="#fff" d="M0 0h406v150H0z"/><g filter="url(#b)"><circle cx="346" cy="89" r="47" fill="#DEFFFE"/></g><rect width="15.959" height="15.959" x="355.856" y="101.144" fill="#32E6E2" rx="2" transform="rotate(45 355.856 101.144)"/><rect width="15.959" height="15.959" x="331.284" y="75" fill="#32E6E2" rx="2" transform="rotate(45 331.284 75)"/><rect width="10.808" height="10.808" x="348.643" y="56.642" fill="#32E6E2" rx="2" transform="rotate(45 348.643 56.642)"/><rect width="10.808" height="10.808" x="329.643" y="31" fill="#32E6E2" rx="2" transform="rotate(45 329.643 31)"/><rect width="5.91" height="5.91" x="345.179" y="12.464" fill="#32E6E2" rx="2" transform="rotate(45 345.179 12.464)"/><rect width="230" height="173" x="19.5" y="28.5" fill="#2036A1" stroke="#2E51ED" rx="7.5"/><circle cx="35.1" cy="42" r="4.1" fill="#316BF4"/><circle cx="49.3" cy="42" r="4.1" fill="#316BF4"/><circle cx="63.5" cy="42" r="4.1" fill="#316BF4"/><rect width="102" height="7" x="31" y="60" fill="#fff" rx="3.5"/><rect width="102" height="7" x="31" y="77" fill="#fff" rx="3.5"/><rect width="48" height="7" x="31" y="93" fill="#fff" rx="3.5"/><path stroke="#fff" d="M32.5 110.5h9v15h-9z"/><g filter="url(#c)" opacity=".55" style="mix-blend-mode:lighten"><circle cx="170" cy="144" r="80" fill="#32E6E2"/></g><rect width="230" height="173" x="95.5" y="13.5" fill="#EDF4FF" stroke="#2E51ED" rx="7.5"/><path fill="#2036A1" d="M109.747 33.046c0-.433.053-.83.161-1.192.111-.366.268-.679.472-.94a2.075 2.075 0 0 1 1.692-.832c.348 0 .65.058.908.176.261.115.487.283.677.505V27.75h.993V36h-.913l-.043-.612a1.894 1.894 0 0 1-.693.537 2.252 2.252 0 0 1-.939.182 2.03 2.03 0 0 1-.957-.225 2.206 2.206 0 0 1-.725-.623 3.021 3.021 0 0 1-.467-.935 3.952 3.952 0 0 1-.166-1.165v-.113Zm.993.113c0 .283.031.551.092.805.06.255.155.478.284.672.126.193.287.347.484.462.197.11.433.166.709.166.333 0 .608-.075.827-.225.218-.15.392-.353.521-.607v-2.697a1.662 1.662 0 0 0-.521-.58c-.219-.154-.491-.23-.817-.23-.279 0-.519.057-.719.171a1.427 1.427 0 0 0-.484.462 2.104 2.104 0 0 0-.284.682 3.444 3.444 0 0 0-.092.806v.113Zm8.368 2.948a2.97 2.97 0 0 1-1.128-.21 2.553 2.553 0 0 1-.875-.584 2.67 2.67 0 0 1-.569-.892 3.025 3.025 0 0 1-.204-1.123v-.225c0-.47.075-.888.225-1.257.151-.372.351-.688.602-.945a2.61 2.61 0 0 1 .843-.586c.319-.136.644-.204.977-.204.419 0 .785.073 1.096.22.315.144.577.342.784.597.208.257.362.56.462.907.104.348.156.724.156 1.128v.446h-4.152v.038c.025.282.081.531.167.746.089.215.211.405.365.57.157.175.347.313.569.413.222.1.468.15.736.15a2.015 2.015 0 0 0 1.633-.784l.607.473c-.194.294-.484.555-.87.784-.383.226-.858.338-1.424.338Zm-.129-5.21c-.2 0-.39.038-.569.113-.179.072-.34.177-.483.317a1.91 1.91 0 0 0-.365.526c-.097.205-.165.44-.205.71h3.126v-.049c0-.179-.034-.37-.102-.575a1.684 1.684 0 0 0-.284-.537 1.382 1.382 0 0 0-.462-.365 1.43 1.43 0 0 0-.656-.14Zm4.163 7.337v-8.046h.908l.048.634a1.855 1.855 0 0 1 .559-.478c.15-.086.317-.15.499-.193.186-.047.385-.07.596-.07.373 0 .702.073.989.22.286.147.526.351.719.613.194.261.341.574.441.94.1.361.15.759.15 1.192v.113c0 .415-.05.804-.15 1.165-.1.358-.247.67-.441.935a2.073 2.073 0 0 1-.719.623 2.04 2.04 0 0 1-.972.225c-.222 0-.43-.023-.623-.07a2.062 2.062 0 0 1-.516-.198 2.223 2.223 0 0 1-.263-.177 2.112 2.112 0 0 1-.231-.22v2.792h-.994Zm3.916-5.188a3.29 3.29 0 0 0-.097-.806 2.127 2.127 0 0 0-.285-.682 1.501 1.501 0 0 0-.499-.462 1.43 1.43 0 0 0-.72-.172c-.154 0-.297.018-.43.054a1.237 1.237 0 0 0-.349.156 1.315 1.315 0 0 0-.306.252c-.089.1-.168.212-.236.333v2.799c.061.107.13.207.209.3.079.093.169.172.269.237.114.075.241.134.381.177.143.043.301.064.473.064.275 0 .514-.057.714-.172a1.48 1.48 0 0 0 .494-.472c.129-.197.224-.425.285-.682.064-.258.097-.528.097-.811v-.113Zm2.852-5.296h2.97v7.39h1.896V36h-4.866v-.86h1.976v-6.525h-1.976v-.865Zm6.171 5.29c0-.418.061-.807.183-1.165.121-.362.297-.675.526-.94.226-.265.501-.473.827-.623.326-.154.693-.23 1.101-.23.412 0 .781.076 1.107.23.329.15.608.358.838.623.225.265.399.578.521.94.121.358.182.747.182 1.166v.118c0 .419-.061.807-.182 1.165-.122.358-.296.67-.521.935-.23.265-.507.472-.833.623-.326.15-.693.225-1.101.225a2.65 2.65 0 0 1-1.112-.225 2.384 2.384 0 0 1-.827-.623 2.768 2.768 0 0 1-.526-.935 3.592 3.592 0 0 1-.183-1.165v-.118Zm.994.119c0 .286.034.56.102.822a2.1 2.1 0 0 0 .311.682c.136.197.308.352.516.467.208.114.449.172.725.172.272 0 .51-.057.714-.172.208-.115.382-.27.521-.467a2.18 2.18 0 0 0 .307-.682c.068-.262.102-.536.102-.822v-.118c0-.283-.036-.554-.108-.811a2.151 2.151 0 0 0-.306-.688 1.55 1.55 0 0 0-.521-.467 1.41 1.41 0 0 0-.72-.177 1.41 1.41 0 0 0-.719.177 1.51 1.51 0 0 0-.511.467 2.095 2.095 0 0 0-.311.688 3.167 3.167 0 0 0-.102.81v.119Zm6.359 5.188c-.093 0-.202-.01-.328-.032a6.093 6.093 0 0 1-.284-.054l.161-.81c.089.006.177.012.263.015.09.008.159.011.21.011a.644.644 0 0 0 .37-.113c.115-.075.217-.164.306-.268.086-.104.16-.212.221-.323.064-.11.114-.202.15-.274l.397-.773-2.503-5.537h1.112l1.595 3.748.258.704.274-.682 1.499-3.77h1.112l-2.949 6.708a3.88 3.88 0 0 1-.263.478 2.332 2.332 0 0 1-.382.467c-.15.144-.326.264-.526.36a1.58 1.58 0 0 1-.693.145Zm12.74-.113v-8.046h.908l.048.634a1.855 1.855 0 0 1 .559-.478c.15-.086.317-.15.499-.193.187-.047.385-.07.597-.07.372 0 .701.073.988.22.286.147.526.351.72.613.193.261.34.574.44.94.1.361.15.759.15 1.192v.113c0 .415-.05.804-.15 1.165-.1.358-.247.67-.44.935a2.085 2.085 0 0 1-.72.623 2.04 2.04 0 0 1-.972.225c-.222 0-.43-.023-.623-.07a2.062 2.062 0 0 1-.516-.198 2.223 2.223 0 0 1-.263-.177 2.31 2.31 0 0 1-.231-.22v2.792h-.994Zm3.916-5.188c0-.283-.032-.551-.097-.806a2.127 2.127 0 0 0-.285-.682 1.492 1.492 0 0 0-.499-.462 1.428 1.428 0 0 0-.72-.172c-.154 0-.297.018-.429.054a1.243 1.243 0 0 0-.35.156 1.315 1.315 0 0 0-.306.252c-.089.1-.168.212-.236.333v2.799c.061.107.131.207.209.3.079.093.169.172.269.237a1.5 1.5 0 0 0 .854.241c.276 0 .514-.057.714-.172.201-.118.366-.275.494-.472.129-.197.224-.425.285-.682.065-.258.097-.528.097-.811v-.113Zm6.504-2.965c.183 0 .373.013.57.038.2.025.35.059.451.102l-.135.972a4.761 4.761 0 0 0-.553-.091 4.363 4.363 0 0 0-.542-.033c-.244 0-.464.03-.661.092a1.52 1.52 0 0 0-.516.258c-.132.1-.248.223-.349.37a2.185 2.185 0 0 0-.241.483V36h-.999v-5.811h.945l.043.778.005.145c.237-.318.52-.569.849-.752.333-.186.711-.279 1.133-.279Zm5.366 6.026a2.97 2.97 0 0 1-1.128-.21 2.553 2.553 0 0 1-.875-.584 2.672 2.672 0 0 1-.57-.892 3.025 3.025 0 0 1-.204-1.123v-.225c0-.47.075-.888.226-1.257.15-.372.351-.688.601-.945.247-.255.528-.45.844-.586.318-.136.644-.204.977-.204.419 0 .784.073 1.096.22.315.144.576.342.784.597.208.257.362.56.462.907.104.348.156.724.156 1.128v.446h-4.152v.038c.025.282.08.531.166.746.09.215.212.405.365.57.158.175.348.313.57.413.222.1.467.15.736.15.354 0 .669-.071.945-.215a2.04 2.04 0 0 0 .687-.569l.607.473c-.193.294-.483.555-.87.784-.383.226-.857.338-1.423.338Zm-.129-5.21c-.2 0-.39.038-.569.113a1.48 1.48 0 0 0-.484.317 1.91 1.91 0 0 0-.365.526c-.097.205-.165.44-.204.71h3.126v-.049c0-.179-.034-.37-.102-.575a1.666 1.666 0 0 0-.285-.537 1.373 1.373 0 0 0-1.117-.505Zm6.15 5.103-2.39-5.811h1.02l1.665 4.382.092.36.096-.36 1.628-4.382h1.015L178.738 36h-.757Zm4.78-5.811h2.97v4.952h1.896V36h-4.866v-.86h1.977v-4.087h-1.977v-.864Zm1.848-1.526c0-.086.012-.166.037-.242a.518.518 0 0 1 .307-.3.703.703 0 0 1 .252-.043.66.66 0 0 1 .247.043c.072.025.131.06.177.107.058.05.101.113.129.188a.681.681 0 0 1 .043.247c0 .161-.05.296-.15.403-.1.107-.249.161-.446.161-.2 0-.351-.054-.451-.161a.578.578 0 0 1-.145-.403Zm7.17 7.444a2.97 2.97 0 0 1-1.128-.21 2.553 2.553 0 0 1-.875-.584 2.67 2.67 0 0 1-.569-.892 3.005 3.005 0 0 1-.205-1.123v-.225c0-.47.076-.888.226-1.257.15-.372.351-.688.602-.945a2.61 2.61 0 0 1 .843-.586c.319-.136.644-.204.977-.204.419 0 .785.073 1.096.22.315.144.577.342.784.597.208.257.362.56.462.907.104.348.156.724.156 1.128v.446h-4.152v.038c.025.282.081.531.167.746.089.215.211.405.365.57.157.175.347.313.569.413.222.1.467.15.736.15a2.015 2.015 0 0 0 1.633-.784l.607.473c-.194.294-.484.555-.87.784-.384.226-.858.338-1.424.338Zm-.129-5.21c-.2 0-.39.038-.569.113-.179.072-.34.177-.483.317a1.913 1.913 0 0 0-.366.526 2.54 2.54 0 0 0-.204.71h3.126v-.049c0-.179-.034-.37-.102-.575a1.684 1.684 0 0 0-.284-.537 1.382 1.382 0 0 0-.462-.365 1.43 1.43 0 0 0-.656-.14ZM196.377 36l-1.235-5.811h.88l.677 3.706.118.832.145-.832.93-3.707h.639l.924 3.707.155.913.145-.913.645-3.707h.881L200.045 36h-.784l-.907-3.561-.151-.902-.145.902-.897 3.561h-.784Zm14.137 0v-5.044h-1.601v-.767h1.601v-.409c0-.372.053-.698.161-.977.111-.283.267-.52.467-.71.197-.189.435-.332.714-.429.28-.097.591-.145.935-.145.143 0 .285.009.424.027a5.18 5.18 0 0 1 .682.118c.09.018.181.04.274.064l-.118.822a3.602 3.602 0 0 0-.515-.129 3.123 3.123 0 0 0-.623-.059c-.226 0-.427.029-.602.086a1.065 1.065 0 0 0-.43.247 1.107 1.107 0 0 0-.279.446 2.02 2.02 0 0 0-.091.64v.408h2.239v.767h-2.239V36h-.999Zm4.844-2.96c0-.418.061-.807.183-1.165.122-.362.297-.675.526-.94.226-.265.502-.473.828-.623a2.54 2.54 0 0 1 1.101-.23c.411 0 .78.076 1.106.23.329.15.609.358.838.623.226.265.399.578.521.94.122.358.183.747.183 1.166v.118c0 .419-.061.807-.183 1.165s-.295.67-.521.935a2.435 2.435 0 0 1-.833.623c-.325.15-.692.225-1.101.225-.411 0-.782-.075-1.111-.225a2.388 2.388 0 0 1-.828-.623 2.785 2.785 0 0 1-.526-.935 3.592 3.592 0 0 1-.183-1.165v-.118Zm.994.119c0 .286.034.56.102.822.068.257.172.485.312.682.136.197.308.352.515.467.208.114.45.172.725.172.272 0 .511-.057.715-.172a1.56 1.56 0 0 0 .521-.467c.136-.197.238-.425.306-.682.068-.262.102-.536.102-.822v-.118c0-.283-.036-.554-.108-.811a2.151 2.151 0 0 0-.306-.688 1.541 1.541 0 0 0-.521-.467 1.41 1.41 0 0 0-.719-.177 1.41 1.41 0 0 0-.72.177c-.204.114-.374.27-.51.467-.14.197-.244.426-.312.688a3.167 3.167 0 0 0-.102.81v.119Zm9.7-3.078c.183 0 .373.013.57.038.2.025.35.059.451.102l-.135.972a4.761 4.761 0 0 0-.553-.091 4.363 4.363 0 0 0-.542-.033c-.244 0-.464.03-.661.092a1.577 1.577 0 0 0-.865.629 2.185 2.185 0 0 0-.241.483V36h-.999v-5.811h.945l.043.778.005.145c.237-.318.52-.569.849-.752.333-.186.711-.279 1.133-.279ZM236.016 36l-1.236-5.811h.881l.677 3.706.118.832.145-.832.929-3.707h.639l.924 3.707.156.913.145-.913.645-3.707h.88L239.684 36h-.784l-.908-3.561-.15-.902-.145.902L236.8 36h-.784Zm6.606 0-1.235-5.811h.881l.676 3.706.118.832.146-.832.929-3.707h.639l.924 3.707.155.913.145-.913.645-3.707h.881L246.291 36h-.785l-.907-3.561-.151-.902-.145.902-.897 3.561h-.784Zm6.607 0-1.236-5.811h.881l.677 3.706.118.832.145-.832.929-3.707h.639l.924 3.707.156.913.145-.913.644-3.707h.881L252.897 36h-.784l-.908-3.561-.15-.902-.145.902-.897 3.561h-.784Zm16.462-5.919c.183 0 .372.013.569.038.201.025.351.059.451.102l-.134.972a4.796 4.796 0 0 0-.553-.091 4.38 4.38 0 0 0-.543-.033c-.243 0-.463.03-.66.092a1.52 1.52 0 0 0-.516.258c-.132.1-.249.223-.349.37a2.187 2.187 0 0 0-.242.483V36h-.999v-5.811h.946l.043.778.005.145c.236-.318.519-.569.849-.752a2.28 2.28 0 0 1 1.133-.279Zm5.366 6.026c-.409 0-.785-.07-1.128-.21a2.566 2.566 0 0 1-1.445-1.476 3.025 3.025 0 0 1-.204-1.123v-.225c0-.47.075-.888.225-1.257.151-.372.351-.688.602-.945a2.61 2.61 0 0 1 .843-.586 2.47 2.47 0 0 1 .978-.204c.419 0 .784.073 1.095.22.316.144.577.342.785.597.207.257.361.56.462.907.103.348.155.724.155 1.128v.446h-4.152v.038c.026.282.081.531.167.746.089.215.211.405.365.57.158.175.348.313.57.413.222.1.467.15.735.15.355 0 .67-.071.946-.215a2.05 2.05 0 0 0 .687-.569l.607.473c-.193.294-.483.555-.87.784-.383.226-.858.338-1.423.338Zm-.129-5.21c-.201 0-.391.038-.57.113-.179.072-.34.177-.483.317a1.91 1.91 0 0 0-.365.526c-.097.205-.165.44-.204.71h3.126v-.049c0-.179-.034-.37-.102-.575a1.666 1.666 0 0 0-.285-.537 1.382 1.382 0 0 0-.462-.365 1.428 1.428 0 0 0-.655-.14ZM278.915 36a1.123 1.123 0 0 1-.097-.28 3.32 3.32 0 0 1-.048-.354 2.76 2.76 0 0 1-.742.521c-.15.068-.309.122-.478.161-.168.04-.347.06-.537.06-.308 0-.587-.045-.838-.135a1.898 1.898 0 0 1-.628-.365 1.56 1.56 0 0 1-.408-.537 1.674 1.674 0 0 1-.14-.682c0-.319.063-.598.188-.838.129-.24.31-.44.542-.602.233-.157.513-.276.838-.354.33-.079.697-.118 1.101-.118h1.085v-.457a1.045 1.045 0 0 0-.37-.833 1.28 1.28 0 0 0-.435-.225 1.873 1.873 0 0 0-.57-.08c-.197 0-.374.024-.531.074-.154.05-.285.117-.392.2a.9.9 0 0 0-.253.295.755.755 0 0 0-.086.349h-.999c.004-.212.057-.42.161-.623.108-.204.262-.389.462-.553.197-.162.437-.292.72-.393.286-.1.61-.15.972-.15.33 0 .636.041.919.124.282.078.528.198.735.36.205.164.366.368.484.612.118.243.177.528.177.854v2.701c0 .194.018.4.054.618.036.215.086.403.15.564V36h-1.036Zm-1.757-.757c.194 0 .374-.025.543-.076.168-.05.322-.116.462-.198a1.74 1.74 0 0 0 .354-.28c.1-.107.179-.218.236-.333V33.18h-.923c-.344 0-.645.03-.903.092a1.47 1.47 0 0 0-.607.268.895.895 0 0 0-.247.306.974.974 0 0 0-.08.403c0 .143.023.276.069.398a.846.846 0 0 0 .221.311 1 1 0 0 0 .365.21c.147.05.317.075.51.075Zm4.356-2.197c0-.433.054-.83.161-1.192.111-.366.269-.679.473-.94.2-.262.444-.466.73-.613a2.08 2.08 0 0 1 .962-.22c.347 0 .65.06.908.177.261.115.487.283.676.505V27.75h.994V36h-.913l-.043-.612a1.894 1.894 0 0 1-.693.537 2.26 2.26 0 0 1-.94.182c-.351 0-.669-.075-.956-.225a2.186 2.186 0 0 1-.725-.623 3 3 0 0 1-.467-.935 3.952 3.952 0 0 1-.167-1.165v-.113Zm.994.113c0 .283.03.551.091.805.061.255.156.478.285.672.125.193.286.347.483.462.197.11.433.166.709.166.333 0 .609-.075.827-.225.219-.15.392-.353.521-.607v-2.697a1.652 1.652 0 0 0-.521-.58c-.218-.154-.49-.23-.816-.23a1.43 1.43 0 0 0-.72.171 1.415 1.415 0 0 0-.483.462 2.127 2.127 0 0 0-.285.682 3.444 3.444 0 0 0-.091.806v.113Zm6.268 5.188c-.093 0-.202-.01-.328-.032a6.093 6.093 0 0 1-.284-.054l.161-.81c.089.006.177.012.263.015.089.008.159.011.209.011.136 0 .26-.037.371-.113.115-.075.217-.164.306-.268.086-.104.159-.212.22-.323.065-.11.115-.202.151-.274l.397-.773-2.503-5.537h1.112l1.595 3.748.258.704.274-.682 1.499-3.77h1.111l-2.948 6.708c-.068.15-.156.31-.264.478-.103.168-.23.324-.381.467-.15.144-.326.264-.526.36a1.58 1.58 0 0 1-.693.145Zm8.911-4.877h-.999v-5.29h.999v5.29Zm-1.096 2.009a.63.63 0 0 1 .15-.43c.104-.114.258-.172.462-.172.204 0 .358.058.462.172a.606.606 0 0 1 .161.43.573.573 0 0 1-.161.414c-.104.11-.258.166-.462.166-.204 0-.358-.055-.462-.166a.595.595 0 0 1-.15-.414ZM109.924 61v-7.82h2.326c.322.003.637.046.945.129.308.078.582.202.822.37.24.168.431.383.574.645.144.261.213.574.21.94a1.653 1.653 0 0 1-.725 1.353c-.133.093-.294.181-.484.263v.017a1.996 1.996 0 0 1 1.021.655 1.934 1.934 0 0 1 .397 1.192c.004.365-.066.688-.209.967a2.06 2.06 0 0 1-.575.698c-.24.19-.517.335-.832.435-.312.1-.634.152-.967.156h-2.503Zm.999-3.658v2.815h1.531a1.89 1.89 0 0 0 .59-.102c.187-.068.351-.161.495-.28.143-.118.256-.263.338-.435a1.29 1.29 0 0 0 .129-.585 1.355 1.355 0 0 0-.113-.59 1.261 1.261 0 0 0-.317-.441 1.46 1.46 0 0 0-.478-.274 1.958 1.958 0 0 0-.591-.108h-1.584Zm0-.827h1.386c.186-.003.368-.032.547-.086.179-.057.339-.14.478-.247a1.21 1.21 0 0 0 .339-.387c.086-.154.129-.333.129-.537a1.13 1.13 0 0 0-.129-.558 1.116 1.116 0 0 0-.333-.382 1.544 1.544 0 0 0-.494-.215 2.47 2.47 0 0 0-.564-.075h-1.359v2.487ZM120.371 61l-.059-.8c-.194.286-.436.51-.726.671-.29.158-.624.236-1.004.236a2.33 2.33 0 0 1-.827-.14 1.616 1.616 0 0 1-.634-.445 2.105 2.105 0 0 1-.408-.763 3.933 3.933 0 0 1-.14-1.117v-3.454h.994v3.465c0 .315.025.576.075.784.05.208.125.372.226.494a.8.8 0 0 0 .365.263c.147.05.315.075.505.075.222 0 .421-.024.596-.075.175-.053.328-.127.457-.22.107-.075.2-.165.279-.268.082-.108.15-.224.204-.35v-4.168h.999V61h-.902Zm2.932-5.812h2.97v4.953h1.896V61h-4.866v-.86h1.977v-4.087h-1.977v-.864Zm1.848-1.525c0-.086.012-.166.037-.242a.518.518 0 0 1 .307-.3.703.703 0 0 1 .252-.043.66.66 0 0 1 .247.043c.072.025.131.06.177.107.058.05.101.113.129.188a.681.681 0 0 1 .043.247c0 .161-.05.296-.15.403-.1.107-.249.161-.446.161-.2 0-.351-.054-.451-.161a.578.578 0 0 1-.145-.403Zm4.759-.913h2.97v7.39h1.896V61h-4.866v-.86h1.976v-6.525h-1.976v-.865Zm8.803 1.031v1.407h2.213v.768h-2.213v3.159c0 .225.029.411.086.558a.861.861 0 0 0 .58.537c.132.036.272.054.419.054a3.564 3.564 0 0 0 .671-.064c.108-.018.208-.036.301-.054l.236-.054.14.704a1.48 1.48 0 0 1-.301.134 3.406 3.406 0 0 1-.387.092 4.96 4.96 0 0 1-.907.086c-.258 0-.5-.036-.725-.108a1.507 1.507 0 0 1-.58-.355 1.643 1.643 0 0 1-.392-.612 2.657 2.657 0 0 1-.14-.918v-3.159h-1.526v-.768h1.526v-1.407h.999ZM150.132 61l-1.236-5.812h.881l.677 3.706.118.833.145-.832.929-3.707h.64l.923 3.706.156.914.145-.913.645-3.707h.881L153.8 61h-.784l-.908-3.561-.15-.902-.145.902-.897 3.561h-.784Zm6.203-5.812h2.971v4.953h1.896V61h-4.867v-.86h1.977v-4.087h-1.977v-.864Zm1.848-1.525c0-.086.013-.166.038-.242a.495.495 0 0 1 .306-.3.703.703 0 0 1 .252-.043.66.66 0 0 1 .247.043c.072.025.131.06.178.107.057.05.1.113.129.188a.703.703 0 0 1 .042.247c0 .161-.05.296-.15.403-.1.107-.249.161-.446.161-.2 0-.351-.054-.451-.161a.578.578 0 0 1-.145-.403Zm6.956.118v1.407h2.213v.768h-2.213v3.159c0 .225.028.411.086.558a.861.861 0 0 0 .58.537c.132.036.272.054.419.054a3.564 3.564 0 0 0 .671-.064c.107-.018.208-.036.301-.054l.236-.054.14.704c-.083.05-.183.095-.301.134a3.406 3.406 0 0 1-.387.092 4.922 4.922 0 0 1-.907.086c-.258 0-.5-.036-.726-.108a1.514 1.514 0 0 1-.58-.355 1.669 1.669 0 0 1-.392-.612 2.682 2.682 0 0 1-.139-.918v-3.159h-1.526v-.768h1.526v-1.407h.999Zm5.247 2.272a2.16 2.16 0 0 1 .263-.322c.097-.1.199-.188.307-.263.171-.126.359-.22.564-.285a2.411 2.411 0 0 1 1.487.032c.251.086.464.222.639.408.176.187.31.423.403.71.097.282.145.619.145 1.01V61h-.993v-3.669c0-.229-.027-.43-.081-.601a1.13 1.13 0 0 0-.236-.435 1.008 1.008 0 0 0-.419-.28 1.544 1.544 0 0 0-.58-.09c-.179 0-.349.024-.51.075a1.787 1.787 0 0 0-.747.467c-.09.093-.17.197-.242.311V61h-.993v-8.25h.993v3.303Zm14.696 4.249a1.609 1.609 0 0 0 .977-.328c.133-.1.238-.218.317-.354a.922.922 0 0 0 .129-.451h.94a1.55 1.55 0 0 1-.204.74 2.074 2.074 0 0 1-.521.613 2.555 2.555 0 0 1-1.638.585c-.441 0-.826-.078-1.155-.236a2.34 2.34 0 0 1-.822-.64 2.688 2.688 0 0 1-.5-.918 3.647 3.647 0 0 1-.166-1.106v-.226c0-.383.055-.75.166-1.1.111-.352.278-.661.5-.93.218-.265.492-.476.822-.634.329-.157.714-.236 1.155-.236.343 0 .658.056.945.167.29.107.541.254.752.44.207.19.37.414.489.671.118.258.177.534.177.828h-.94a1.176 1.176 0 0 0-.118-.495 1.303 1.303 0 0 0-.296-.413 1.361 1.361 0 0 0-.451-.28 1.504 1.504 0 0 0-.558-.102c-.308 0-.568.063-.779.188a1.5 1.5 0 0 0-.505.478c-.129.201-.222.425-.279.672a3.486 3.486 0 0 0-.081.746v.226c0 .254.027.507.081.757.057.247.15.47.279.666.125.2.292.364.499.49.212.12.473.182.785.182Zm3.851-2.261c0-.42.06-.808.182-1.166a2.76 2.76 0 0 1 .527-.94c.225-.265.501-.473.827-.623.326-.154.693-.23 1.101-.23.412 0 .78.076 1.106.23.33.15.609.358.838.623.226.265.399.578.521.94.122.358.183.747.183 1.166v.118c0 .419-.061.807-.183 1.165s-.295.67-.521.935a2.44 2.44 0 0 1-.832.623c-.326.15-.693.225-1.101.225-.412 0-.783-.075-1.112-.225a2.375 2.375 0 0 1-.827-.623 2.77 2.77 0 0 1-.527-.935 3.592 3.592 0 0 1-.182-1.165v-.118Zm.993.118c0 .286.034.56.102.822.068.257.172.485.312.682.136.197.308.352.515.467.208.114.45.172.726.172.272 0 .51-.057.714-.172a1.55 1.55 0 0 0 .521-.467c.136-.197.238-.425.306-.682.068-.262.102-.536.102-.822v-.118a3.04 3.04 0 0 0-.107-.811 2.151 2.151 0 0 0-.306-.688 1.56 1.56 0 0 0-.521-.467 1.414 1.414 0 0 0-.72-.178 1.41 1.41 0 0 0-.72.178c-.204.114-.374.27-.51.467-.14.197-.244.426-.312.688a3.167 3.167 0 0 0-.102.81v.119Zm6.349-2.97.027.547c.118-.204.272-.363.462-.478a1.38 1.38 0 0 1 .698-.177c.154 0 .292.018.413.054.126.032.235.08.328.145a1.117 1.117 0 0 1 .328.424 1.361 1.361 0 0 1 .397-.419c.1-.06.211-.11.333-.145.126-.036.262-.055.408-.059.201 0 .382.03.543.091.161.058.297.144.408.258.122.13.215.297.279.505.065.204.097.446.097.725V61h-.945v-4.35c0-.122-.015-.23-.043-.323a.62.62 0 0 0-.124-.23.537.537 0 0 0-.215-.13.88.88 0 0 0-.29-.043.87.87 0 0 0-.306.049.643.643 0 0 0-.215.129.629.629 0 0 0-.134.198.81.81 0 0 0-.064.242V61h-.946v-4.356c0-.122-.014-.23-.043-.322a.534.534 0 0 0-.123-.231.458.458 0 0 0-.204-.124.82.82 0 0 0-.28-.043c-.118 0-.222.015-.311.043a.61.61 0 0 0-.344.247.829.829 0 0 0-.08.162V61h-.946v-5.812h.892Zm6.606 0 .027.547c.118-.204.272-.363.462-.478a1.38 1.38 0 0 1 .698-.177c.154 0 .292.018.414.054.125.032.234.08.328.145.068.05.128.11.182.182.057.072.106.153.145.242a1.361 1.361 0 0 1 .398-.419c.1-.06.211-.11.333-.145.125-.036.261-.055.408-.059.2 0 .381.03.542.091.161.058.298.144.409.258.121.13.214.297.279.505.064.204.097.446.097.725V61h-.946v-4.35c0-.122-.014-.23-.043-.323a.619.619 0 0 0-.123-.23.544.544 0 0 0-.215-.13.88.88 0 0 0-.29-.043.87.87 0 0 0-.306.049.633.633 0 0 0-.215.129.629.629 0 0 0-.134.198.81.81 0 0 0-.065.242V61h-.945v-4.356c0-.122-.015-.23-.043-.322a.525.525 0 0 0-.124-.231.448.448 0 0 0-.204-.124.817.817 0 0 0-.279-.043c-.118 0-.222.015-.312.043a.61.61 0 0 0-.343.247.832.832 0 0 0-.081.162V61h-.945v-5.812h.891Zm6.306 0h2.97v4.952h1.896V61h-4.866v-.86h1.977v-4.087h-1.977v-.864Zm1.848-1.526c0-.086.012-.166.037-.242a.518.518 0 0 1 .306-.3.712.712 0 0 1 .253-.043c.093 0 .175.014.247.043.072.025.131.06.177.107.057.05.1.113.129.188a.681.681 0 0 1 .043.247c0 .161-.05.296-.15.403-.101.107-.249.161-.446.161-.201 0-.351-.054-.451-.161a.578.578 0 0 1-.145-.403Zm6.955.118v1.407h2.213v.768h-2.213v3.159c0 .225.029.411.086.558a.861.861 0 0 0 .58.537c.133.036.272.054.419.054a3.531 3.531 0 0 0 .672-.064c.107-.018.207-.036.3-.054l.237-.054.139.704a1.47 1.47 0 0 1-.3.134 3.511 3.511 0 0 1-.387.092 4.96 4.96 0 0 1-.908.086c-.258 0-.499-.036-.725-.108a1.514 1.514 0 0 1-.58-.355 1.656 1.656 0 0 1-.392-.612 2.681 2.681 0 0 1-.14-.918v-3.159h-1.525v-.768h1.525v-1.407h.999ZM110.928 79.053a2.16 2.16 0 0 1 .263-.322c.097-.1.199-.188.307-.263.171-.126.359-.22.564-.285a2.411 2.411 0 0 1 1.487.032c.251.086.464.222.639.409.176.186.31.422.403.709.097.282.145.619.145 1.01V84h-.993v-3.668c0-.23-.027-.43-.081-.602a1.13 1.13 0 0 0-.236-.435 1.008 1.008 0 0 0-.419-.28 1.544 1.544 0 0 0-.58-.09c-.179 0-.349.024-.51.075a1.787 1.787 0 0 0-.747.467c-.09.093-.17.197-.242.311V84h-.993v-8.25h.993v3.303Zm7.966-2.272v1.407h2.212v.769h-2.212v3.158c0 .225.028.412.085.558a.873.873 0 0 0 .581.537c.132.036.272.054.419.054a3.564 3.564 0 0 0 .671-.064c.107-.018.208-.036.301-.054l.236-.054.14.704c-.083.05-.183.095-.301.134a3.406 3.406 0 0 1-.387.091c-.139.03-.288.05-.446.065a4.96 4.96 0 0 1-.462.021c-.257 0-.499-.035-.725-.107a1.514 1.514 0 0 1-.58-.355 1.669 1.669 0 0 1-.392-.612 2.682 2.682 0 0 1-.139-.918v-3.158h-1.526v-.768h1.526V76.78h.999Zm6.606 0v1.407h2.213v.769H125.5v3.158c0 .225.029.412.086.558a.861.861 0 0 0 .58.537c.133.036.272.054.419.054a3.564 3.564 0 0 0 .671-.064c.108-.018.208-.036.301-.054l.236-.054.14.704a1.48 1.48 0 0 1-.301.134 3.439 3.439 0 0 1-.386.091c-.14.03-.289.05-.446.065a4.96 4.96 0 0 1-.462.021c-.258 0-.5-.035-.725-.107a1.507 1.507 0 0 1-.58-.355 1.643 1.643 0 0 1-.392-.612 2.681 2.681 0 0 1-.14-.918v-3.158h-1.525v-.768h1.525V76.78h.999Zm4.249 9.453V78.19h.907l.049.633c.078-.1.164-.19.257-.268a1.864 1.864 0 0 1 .801-.403c.186-.047.385-.07.596-.07.372 0 .702.073.988.22.287.147.527.351.72.613.193.261.34.574.44.94.101.361.151.759.151 1.192v.113c0 .415-.05.804-.151 1.165-.1.358-.247.67-.44.935a2.067 2.067 0 0 1-.72.623 2.04 2.04 0 0 1-.972.225c-.222 0-.43-.023-.623-.07a2.062 2.062 0 0 1-.516-.198 2.308 2.308 0 0 1-.263-.177 2.31 2.31 0 0 1-.231-.22v2.792h-.993Zm3.915-5.188c0-.283-.032-.552-.097-.806a2.104 2.104 0 0 0-.284-.682 1.504 1.504 0 0 0-.5-.462c-.2-.114-.44-.172-.72-.172a1.64 1.64 0 0 0-.429.054 1.237 1.237 0 0 0-.349.156 1.275 1.275 0 0 0-.306.252c-.09.1-.169.212-.237.333v2.799c.061.107.131.207.21.3.078.094.168.172.268.237a1.491 1.491 0 0 0 .854.241c.276 0 .514-.057.715-.172.2-.118.365-.275.494-.472.129-.197.224-.424.284-.682.065-.258.097-.528.097-.811v-.113Zm6.558 1.412a.693.693 0 0 0-.07-.316.699.699 0 0 0-.236-.264 1.807 1.807 0 0 0-.44-.214 4.456 4.456 0 0 0-.683-.183 7.015 7.015 0 0 1-.913-.247 2.886 2.886 0 0 1-.698-.35 1.483 1.483 0 0 1-.456-.466 1.222 1.222 0 0 1-.162-.634c0-.237.056-.457.167-.661.111-.208.267-.389.467-.542.201-.154.439-.276.715-.366.279-.09.585-.134.918-.134.358 0 .68.047.967.14.286.093.53.222.73.386.201.165.355.359.462.58.111.219.167.455.167.71h-.994a.748.748 0 0 0-.097-.366 1.042 1.042 0 0 0-.268-.322 1.375 1.375 0 0 0-.419-.226 1.63 1.63 0 0 0-.548-.086c-.211 0-.397.024-.559.07-.157.047-.288.11-.392.188a.787.787 0 0 0-.241.274.69.69 0 0 0-.081.322c0 .115.022.217.065.307.043.09.118.17.225.241.104.072.244.136.419.194.179.057.405.113.677.166.358.075.678.163.961.263.283.097.521.213.715.35.193.14.34.3.44.483.104.183.156.394.156.634 0 .258-.059.492-.177.703a1.624 1.624 0 0 1-.484.543c-.208.15-.456.266-.746.349-.29.082-.607.123-.951.123a3.29 3.29 0 0 1-1.053-.155 2.498 2.498 0 0 1-.779-.425 1.81 1.81 0 0 1-.494-.601 1.62 1.62 0 0 1-.166-.715h.993c.015.204.068.376.162.516.096.14.216.252.359.338.14.086.296.147.468.183.172.036.342.054.51.054.265 0 .496-.03.693-.092.197-.064.351-.152.462-.263a.715.715 0 0 0 .155-.225.65.65 0 0 0 .054-.263Zm4.743.898c0-.212.064-.393.193-.543.129-.15.324-.226.586-.226.257 0 .453.076.585.226a.768.768 0 0 1 .204.543.742.742 0 0 1-.204.531c-.136.143-.331.215-.585.215-.258 0-.453-.072-.586-.215a.777.777 0 0 1-.193-.531Zm0-4.706c0-.21.064-.392.193-.542.129-.15.324-.226.586-.226.257 0 .453.075.585.226a.768.768 0 0 1 .204.542.742.742 0 0 1-.204.532c-.136.143-.331.215-.585.215-.258 0-.453-.072-.586-.215a.777.777 0 0 1-.193-.532Zm5.919 6.021h-.892l3.266-8.491h.886l-3.26 8.491Zm6.606 0h-.891l3.265-8.491h.886l-3.26 8.491Zm5.296-.671v-5.811h.892l.07.859c.085-.122.179-.233.279-.333a2.102 2.102 0 0 1 .886-.532c.204-.064.419-.098.645-.102.304 0 .58.043.827.129.25.086.463.22.639.403.175.182.31.415.403.698.096.28.145.612.145 1V84h-.994v-3.668c0-.258-.029-.477-.086-.656a1.055 1.055 0 0 0-.252-.435 1.017 1.017 0 0 0-.419-.242 1.887 1.887 0 0 0-.559-.075c-.182 0-.352.027-.51.08-.158.051-.303.12-.435.21-.108.08-.208.17-.301.274a1.97 1.97 0 0 0-.236.344V84h-.994Zm9.174.107a2.97 2.97 0 0 1-1.128-.21 2.553 2.553 0 0 1-.875-.585 2.672 2.672 0 0 1-.57-.891 3.025 3.025 0 0 1-.204-1.123v-.225c0-.47.075-.888.226-1.257.15-.373.351-.688.601-.945.247-.255.528-.45.844-.586.318-.136.644-.204.977-.204.419 0 .784.073 1.096.22.315.144.576.342.784.596.208.258.362.56.462.908.104.347.156.723.156 1.128v.446h-4.152v.037c.025.283.08.532.166.747.09.215.212.405.365.57.158.175.348.313.57.413.222.1.467.15.736.15.354 0 .669-.071.945-.215a2.04 2.04 0 0 0 .687-.569l.607.473c-.193.293-.483.555-.87.784-.383.226-.857.338-1.423.338Zm-.129-5.21c-.2 0-.39.038-.569.113a1.48 1.48 0 0 0-.484.317 1.91 1.91 0 0 0-.365.526c-.097.205-.165.44-.204.71h3.126v-.049c0-.179-.034-.37-.102-.575a1.666 1.666 0 0 0-.285-.537 1.373 1.373 0 0 0-1.117-.505ZM176.558 84l-1.236-5.811h.881l.677 3.706.118.832.145-.833.929-3.706h.639l.924 3.706.156.914.145-.914.645-3.706h.88L180.226 84h-.784l-.908-3.561-.15-.902-.145.902-.897 3.561h-.784Zm10.393-3.013h-4.109v-.817h4.109v.817Zm7.186.172c0 .254-.019.5-.059.735a3.637 3.637 0 0 1-.161.656c-.097.268-.224.51-.381.725a2.065 2.065 0 0 1-.559.526 2.076 2.076 0 0 1-.521.226 2.18 2.18 0 0 1-.607.08c-.251 0-.48-.03-.687-.09a1.934 1.934 0 0 1-.554-.264 2.245 2.245 0 0 1-.429-.414l-.049.661h-.913v-8.25h.994v3.061c.082-.103.174-.196.274-.279a1.783 1.783 0 0 1 .795-.392c.172-.04.358-.059.558-.059.251 0 .482.034.693.102.212.068.403.163.575.285.154.114.292.254.414.419.121.16.229.342.322.542.096.226.17.476.22.752.05.272.075.56.075.865v.113Zm-.993-.113c0-.183-.013-.36-.038-.532a3.051 3.051 0 0 0-.102-.494 2.284 2.284 0 0 0-.253-.521 1.16 1.16 0 0 0-.381-.37 1.337 1.337 0 0 0-.349-.151 1.605 1.605 0 0 0-.43-.054 1.518 1.518 0 0 0-.854.253 1.594 1.594 0 0 0-.306.29 1.787 1.787 0 0 0-.22.354v2.54c.064.13.14.25.226.36.089.108.191.203.306.285.114.083.243.147.386.194.144.043.301.064.473.064.165 0 .315-.02.451-.059.136-.043.258-.104.365-.183.144-.1.264-.227.36-.38a2.09 2.09 0 0 0 .231-.516c.047-.144.081-.298.102-.462a3.81 3.81 0 0 0 .033-.505v-.113Zm6.482-2.965c.183 0 .373.013.57.038.2.025.351.059.451.102l-.134.972a4.812 4.812 0 0 0-.554-.091 4.351 4.351 0 0 0-.542-.033c-.243 0-.464.03-.661.092a1.553 1.553 0 0 0-.864.629 2.145 2.145 0 0 0-.242.482V84h-.999v-5.811h.945l.043.778.006.145c.236-.318.519-.569.848-.752.333-.186.711-.279 1.133-.279ZM206.244 84a1.123 1.123 0 0 1-.097-.28 3.32 3.32 0 0 1-.048-.354 2.686 2.686 0 0 1-.742.521c-.15.068-.309.122-.478.161-.168.04-.347.06-.537.06-.308 0-.587-.045-.838-.135a1.898 1.898 0 0 1-.628-.365 1.573 1.573 0 0 1-.408-.537 1.674 1.674 0 0 1-.14-.682c0-.319.063-.598.188-.838.129-.24.31-.44.543-.602.232-.157.512-.275.837-.354.33-.079.697-.118 1.102-.118h1.085v-.457a1.045 1.045 0 0 0-.371-.832 1.28 1.28 0 0 0-.435-.226 1.867 1.867 0 0 0-.569-.08 1.75 1.75 0 0 0-.532.075c-.154.05-.285.116-.392.198a.9.9 0 0 0-.253.296.755.755 0 0 0-.086.349h-.999c.004-.212.058-.42.161-.623.108-.204.262-.389.462-.553.197-.162.437-.292.72-.393.287-.1.611-.15.972-.15.33 0 .636.041.919.124.283.078.528.198.736.36.204.164.365.368.483.612.118.243.177.528.177.854v2.701c0 .194.018.4.054.618.036.215.086.403.15.564V84h-1.036Zm-1.757-.757c.194 0 .374-.025.543-.075.168-.05.322-.117.462-.2a1.74 1.74 0 0 0 .354-.279c.1-.107.179-.218.237-.333V81.18h-.924c-.344 0-.645.03-.903.091a1.47 1.47 0 0 0-.607.269.895.895 0 0 0-.247.306.974.974 0 0 0-.08.403c0 .143.023.276.07.398.05.121.123.225.22.311a1 1 0 0 0 .365.21c.147.05.317.075.51.075Zm4.544.757v-5.811h.892l.07.859c.086-.122.179-.233.279-.333a2.093 2.093 0 0 1 .886-.532c.204-.064.419-.098.645-.102.304 0 .58.043.827.129.251.086.464.22.639.403.175.182.31.415.403.698.097.28.145.612.145 1V84h-.994v-3.668c0-.258-.028-.477-.086-.656a1.055 1.055 0 0 0-.252-.435 1.017 1.017 0 0 0-.419-.242 1.883 1.883 0 0 0-.559-.075 1.682 1.682 0 0 0-.945.29c-.107.08-.208.17-.301.274a1.97 1.97 0 0 0-.236.344V84h-.994Zm9.083-.698a1.609 1.609 0 0 0 .977-.328c.133-.1.238-.218.317-.354a.901.901 0 0 0 .129-.452h.94a1.55 1.55 0 0 1-.204.742 2.074 2.074 0 0 1-.521.612 2.551 2.551 0 0 1-1.638.585c-.441 0-.826-.078-1.155-.236a2.358 2.358 0 0 1-.822-.64 2.686 2.686 0 0 1-.499-.917 3.647 3.647 0 0 1-.167-1.107v-.226c0-.383.056-.75.167-1.1.111-.352.277-.661.499-.93.219-.265.493-.476.822-.634.329-.157.714-.236 1.155-.236.344 0 .659.056.945.167.29.107.541.254.752.44.208.19.371.414.489.671.118.258.177.534.177.828h-.94a1.16 1.16 0 0 0-.118-.495 1.315 1.315 0 0 0-.747-.692 1.504 1.504 0 0 0-.558-.103c-.308 0-.568.063-.779.188a1.5 1.5 0 0 0-.505.479c-.129.2-.222.424-.279.67a3.486 3.486 0 0 0-.081.747v.226c0 .254.027.507.081.757.057.247.15.47.279.666.125.2.292.364.5.49.211.12.472.182.784.182Zm5.124-4.249c.079-.118.166-.225.263-.322.097-.1.199-.188.306-.263.172-.126.36-.22.564-.285a2.415 2.415 0 0 1 1.488.032c.251.086.464.222.639.409.176.186.31.422.403.709.097.282.145.619.145 1.01V84h-.994v-3.668c0-.23-.027-.43-.08-.602a1.132 1.132 0 0 0-.237-.435 1.001 1.001 0 0 0-.419-.28 1.54 1.54 0 0 0-.58-.09 1.657 1.657 0 0 0-.956.29 1.87 1.87 0 0 0-.542.563V84h-.994v-8.25h.994v3.303Zm9.958 1.934h-4.109v-.817h4.109v.817Zm6.606 0h-4.109v-.817h4.109v.817ZM110.493 99l-1.235-5.811h.881l.676 3.706.119.832.145-.833.929-3.706h.639l.924 3.706.156.914.145-.914.644-3.706h.881L114.162 99h-.785l-.907-3.561-.151-.902-.145.902-.897 3.561h-.784Zm6.607 0-1.236-5.811h.881l.677 3.706.118.832.145-.833.929-3.706h.639l.924 3.706.156.914.145-.914.645-3.706h.88L120.768 99h-.784l-.908-3.561-.15-.902-.145.902-.897 3.561h-.784Zm6.606 0-1.235-5.811h.881l.676 3.706.118.832.146-.833.929-3.706h.639l.924 3.706.155.914.145-.914.645-3.706h.881L127.375 99h-.785l-.907-3.561-.151-.902-.145.902L124.49 99h-.784Zm7.777-.644c0-.212.065-.393.194-.543.129-.15.324-.226.585-.226.258 0 .453.076.586.226a.768.768 0 0 1 .204.543.742.742 0 0 1-.204.531c-.136.143-.332.215-.586.215-.258 0-.453-.072-.585-.215a.778.778 0 0 1-.194-.531Zm7.445.751a2.97 2.97 0 0 1-1.128-.21 2.566 2.566 0 0 1-1.445-1.476 3.025 3.025 0 0 1-.204-1.123v-.225c0-.47.075-.888.225-1.257.151-.373.351-.688.602-.945a2.61 2.61 0 0 1 .843-.586 2.47 2.47 0 0 1 .978-.204c.419 0 .784.073 1.096.22.315.144.576.342.784.596.207.258.361.56.462.908.103.347.155.723.155 1.128v.446h-4.151v.037c.025.283.08.532.166.747.09.215.211.405.365.57.158.175.348.313.57.413.222.1.467.15.735.15.355 0 .67-.071.946-.215a2.05 2.05 0 0 0 .687-.569l.607.473c-.193.293-.483.555-.87.784-.383.226-.858.338-1.423.338Zm-.129-5.21c-.201 0-.39.038-.57.113-.179.072-.34.177-.483.317a1.91 1.91 0 0 0-.365.526c-.097.205-.165.44-.204.71h3.126v-.049c0-.179-.034-.37-.102-.575a1.666 1.666 0 0 0-.285-.537 1.382 1.382 0 0 0-.462-.365 1.428 1.428 0 0 0-.655-.14Zm6.569 1.445 1.552-2.153h1.165l-2.164 2.873L148.145 99h-1.15l-1.606-2.213L143.783 99h-1.16l2.224-2.938-2.165-2.873h1.15l1.536 2.153ZM153.392 99a1.165 1.165 0 0 1-.097-.28 3.924 3.924 0 0 1-.048-.354 2.675 2.675 0 0 1-.741.521c-.151.068-.31.122-.478.161-.168.04-.347.06-.537.06-.308 0-.588-.045-.838-.135a1.903 1.903 0 0 1-.629-.365 1.585 1.585 0 0 1-.408-.537 1.674 1.674 0 0 1-.139-.682c0-.319.062-.598.188-.838.128-.24.309-.44.542-.602.233-.157.512-.275.838-.354a4.74 4.74 0 0 1 1.101-.118h1.085v-.457c0-.175-.032-.333-.097-.473a1.021 1.021 0 0 0-.274-.36 1.28 1.28 0 0 0-.435-.225 1.867 1.867 0 0 0-.569-.08c-.197 0-.374.024-.532.075-.154.05-.284.116-.392.198a.908.908 0 0 0-.252.296.743.743 0 0 0-.086.349h-.999c.003-.212.057-.42.161-.623.107-.204.261-.389.462-.553.197-.162.437-.292.72-.393.286-.1.61-.15.972-.15.329 0 .635.041.918.124.283.078.528.198.736.36.204.164.365.368.483.612.119.243.178.528.178.854v2.701c0 .194.018.4.053.618.036.215.086.403.151.564V99h-1.037Zm-1.756-.757c.193 0 .374-.025.542-.075.169-.05.322-.117.462-.2.136-.082.254-.175.355-.279.1-.107.179-.218.236-.333V96.18h-.924c-.344 0-.644.03-.902.091a1.465 1.465 0 0 0-.607.269.872.872 0 0 0-.247.306.959.959 0 0 0-.081.403c0 .143.023.276.07.398.05.121.124.225.22.311.097.09.219.16.365.21.147.05.317.075.511.075Zm5-5.054.027.547c.118-.204.272-.363.462-.478a1.38 1.38 0 0 1 .698-.177c.154 0 .292.018.414.054.125.032.234.08.327.145a1.079 1.079 0 0 1 .328.424 1.361 1.361 0 0 1 .398-.419c.1-.06.211-.11.333-.145.125-.036.261-.055.408-.059.2 0 .381.03.542.091.161.058.297.144.408.258.122.13.215.297.28.505.064.204.096.446.096.725V99h-.945v-4.35c0-.122-.014-.23-.043-.323a.633.633 0 0 0-.123-.23.544.544 0 0 0-.215-.13.885.885 0 0 0-.29-.043.87.87 0 0 0-.306.049.633.633 0 0 0-.215.129.632.632 0 0 0-.135.198.841.841 0 0 0-.064.242V99h-.945v-4.356c0-.122-.015-.23-.043-.322a.535.535 0 0 0-.124-.231.458.458 0 0 0-.204-.124.817.817 0 0 0-.279-.043c-.118 0-.222.015-.312.043a.61.61 0 0 0-.343.247.78.78 0 0 0-.081.162V99h-.945v-5.811h.891Zm6.145 8.045v-8.045h.907l.049.633a1.855 1.855 0 0 1 .558-.478c.151-.086.317-.15.5-.193.186-.047.385-.07.596-.07.373 0 .702.073.988.22.287.147.527.351.72.613.193.261.34.574.441.94.1.361.15.759.15 1.192v.113c0 .415-.05.804-.15 1.165-.101.358-.248.67-.441.935a2.037 2.037 0 0 1-1.692.849c-.222 0-.429-.024-.623-.07a2.055 2.055 0 0 1-.515-.2 2.235 2.235 0 0 1-.264-.176 2.31 2.31 0 0 1-.231-.22v2.792h-.993Zm3.915-5.188a3.29 3.29 0 0 0-.096-.806 2.127 2.127 0 0 0-.285-.682 1.504 1.504 0 0 0-.5-.462c-.2-.114-.44-.172-.719-.172-.154 0-.297.018-.43.054a1.237 1.237 0 0 0-.349.156 1.275 1.275 0 0 0-.306.252c-.09.1-.169.212-.237.333v2.799c.061.107.131.207.21.3.079.094.168.172.268.237a1.491 1.491 0 0 0 .854.241c.276 0 .514-.057.715-.172.2-.118.365-.275.494-.472.129-.197.224-.424.285-.682.064-.258.096-.528.096-.811v-.113Zm2.852-5.296h2.971v7.39h1.896V99h-4.867v-.86h1.977v-6.525h-1.977v-.865Zm9.018 8.357a2.97 2.97 0 0 1-1.128-.21 2.553 2.553 0 0 1-.875-.585 2.67 2.67 0 0 1-.569-.891 3.025 3.025 0 0 1-.204-1.123v-.225c0-.47.075-.888.225-1.257.151-.373.351-.688.602-.945a2.61 2.61 0 0 1 .843-.586c.319-.136.644-.204.978-.204.418 0 .784.073 1.095.22.315.144.577.342.784.596.208.258.362.56.462.908.104.347.156.723.156 1.128v.446h-4.152v.037c.025.283.081.532.167.747.089.215.211.405.365.57.157.175.347.313.569.413.222.1.468.15.736.15a2.015 2.015 0 0 0 1.633-.784l.607.473c-.193.293-.484.555-.87.784-.383.226-.858.338-1.424.338Zm-.128-5.21c-.201 0-.391.038-.57.113-.179.072-.34.177-.483.317a1.91 1.91 0 0 0-.365.526c-.097.205-.165.44-.205.71h3.126v-.049c0-.179-.034-.37-.102-.575a1.684 1.684 0 0 0-.284-.537 1.382 1.382 0 0 0-.462-.365 1.428 1.428 0 0 0-.655-.14Zm5.897 4.459c0-.212.064-.393.193-.543.129-.15.324-.226.586-.226.258 0 .453.076.585.226a.768.768 0 0 1 .204.543.742.742 0 0 1-.204.531c-.136.143-.331.215-.585.215-.258 0-.453-.072-.586-.215a.777.777 0 0 1-.193-.531Zm7.353-.054c.179 0 .353-.029.521-.086a1.51 1.51 0 0 0 .457-.242c.132-.1.238-.218.316-.354a.901.901 0 0 0 .129-.452h.94a1.528 1.528 0 0 1-.204.742 2.06 2.06 0 0 1-.521.612 2.551 2.551 0 0 1-1.638.585c-.44 0-.825-.078-1.155-.236a2.358 2.358 0 0 1-.822-.64 2.686 2.686 0 0 1-.499-.917 3.647 3.647 0 0 1-.167-1.107v-.226c0-.383.056-.75.167-1.1.111-.352.277-.661.499-.93.219-.265.493-.476.822-.634.33-.157.715-.236 1.155-.236.344 0 .659.056.945.167.29.107.541.254.752.44.208.19.371.414.489.671.118.258.177.534.177.828h-.94a1.16 1.16 0 0 0-.118-.495 1.3 1.3 0 0 0-.295-.413 1.382 1.382 0 0 0-.451-.28 1.506 1.506 0 0 0-.559-.102c-.308 0-.568.063-.779.188a1.5 1.5 0 0 0-.505.479c-.129.2-.222.424-.279.67a3.486 3.486 0 0 0-.081.747v.226c0 .254.027.507.081.757.057.247.15.47.279.666.126.2.292.364.5.49.211.12.472.182.784.182Zm3.851-2.262c0-.418.061-.807.183-1.165.121-.362.297-.675.526-.94.226-.265.501-.473.827-.623.326-.154.693-.23 1.101-.23.412 0 .781.076 1.107.23.329.15.608.358.838.623.225.265.399.578.521.94.121.358.182.747.182 1.165v.119c0 .419-.061.807-.182 1.165-.122.358-.296.67-.521.935-.23.265-.507.472-.833.623-.326.15-.693.225-1.101.225a2.65 2.65 0 0 1-1.112-.225 2.384 2.384 0 0 1-.827-.623 2.768 2.768 0 0 1-.526-.935 3.592 3.592 0 0 1-.183-1.165v-.119Zm.994.119c0 .286.034.56.102.822a2.1 2.1 0 0 0 .311.682c.136.197.308.352.516.467.208.115.449.172.725.172.272 0 .51-.058.714-.172.208-.115.382-.27.521-.467a2.18 2.18 0 0 0 .307-.682c.068-.262.102-.536.102-.822v-.119c0-.282-.036-.553-.108-.81a2.151 2.151 0 0 0-.306-.688 1.55 1.55 0 0 0-.521-.467 1.41 1.41 0 0 0-.72-.178 1.41 1.41 0 0 0-.719.178 1.51 1.51 0 0 0-.511.467 2.095 2.095 0 0 0-.311.688 3.167 3.167 0 0 0-.102.81v.119Zm6.348-2.97.027.547c.118-.204.272-.363.462-.478a1.38 1.38 0 0 1 .698-.177c.154 0 .292.018.414.054.125.032.234.08.328.145.068.05.128.11.182.182.057.072.106.153.145.242a1.361 1.361 0 0 1 .398-.419c.1-.06.211-.11.333-.145.125-.036.261-.055.408-.059.2 0 .381.03.542.091.161.058.298.144.409.258.121.13.214.297.279.505.064.204.097.446.097.725V99h-.946v-4.35c0-.122-.014-.23-.043-.323a.619.619 0 0 0-.123-.23.544.544 0 0 0-.215-.13.88.88 0 0 0-.29-.043.87.87 0 0 0-.306.049.633.633 0 0 0-.215.129.629.629 0 0 0-.134.198.81.81 0 0 0-.065.242V99h-.945v-4.356c0-.122-.015-.23-.043-.322a.525.525 0 0 0-.124-.231.448.448 0 0 0-.204-.124.817.817 0 0 0-.279-.043c-.118 0-.222.015-.312.043a.61.61 0 0 0-.343.247.832.832 0 0 0-.081.162V99h-.945v-5.811h.891Z"/><rect width="42" height="15" x="226" y="49" fill="#fff" rx="4"/><path fill="#2036A1" d="M234.359 57.93c0 .203-.014.395-.043.578-.028.18-.07.346-.125.5-.059.17-.139.323-.238.46a1.34 1.34 0 0 1-.344.344 1.327 1.327 0 0 1-.406.196c-.148.047-.312.07-.492.07-.164 0-.314-.02-.449-.062a1.156 1.156 0 0 1-.36-.176 1.337 1.337 0 0 1-.16-.13 1.683 1.683 0 0 1-.14-.16l-.051.45h-.977v-6h1.086v2.156a1.42 1.42 0 0 1 .36-.297c.096-.054.2-.095.312-.12.115-.03.238-.044.371-.044.182 0 .349.024.5.07.154.047.29.115.41.204.097.067.184.15.262.246.078.094.147.196.207.308.094.18.163.382.207.606.047.224.07.463.07.719v.082Zm-1.086-.082c0-.112-.005-.22-.015-.325a2.098 2.098 0 0 0-.051-.293 1.239 1.239 0 0 0-.113-.285.72.72 0 0 0-.203-.234.618.618 0 0 0-.203-.098.873.873 0 0 0-.258-.035.992.992 0 0 0-.344.055.69.69 0 0 0-.348.277 1.118 1.118 0 0 0-.078.137v1.684c.031.065.067.124.106.18a.695.695 0 0 0 .144.136c.065.05.141.087.227.113a1.066 1.066 0 0 0 .562.004.667.667 0 0 0 .399-.32c.052-.094.091-.2.117-.317.021-.086.035-.18.043-.28a3.23 3.23 0 0 0 .015-.317v-.082Zm5.891.082c0 .203-.014.395-.043.578a2.81 2.81 0 0 1-.125.5c-.06.17-.139.323-.238.46a1.355 1.355 0 0 1-.344.344c-.12.086-.255.152-.406.196-.149.047-.313.07-.492.07a1.53 1.53 0 0 1-.45-.062 1.161 1.161 0 0 1-.359-.176 1.262 1.262 0 0 1-.301-.29l-.051.45h-.976v-6h1.086v2.156a1.42 1.42 0 0 1 .359-.297c.097-.054.201-.095.313-.12.114-.03.238-.044.371-.044.182 0 .349.024.5.07.153.047.29.115.41.204.096.067.184.15.262.246.078.094.147.196.207.308.093.18.162.382.207.606.047.224.07.463.07.719v.082Zm-1.086-.082c0-.112-.005-.22-.016-.325a1.963 1.963 0 0 0-.05-.293 1.24 1.24 0 0 0-.114-.285.708.708 0 0 0-.203-.234.609.609 0 0 0-.203-.098.863.863 0 0 0-.258-.035.99.99 0 0 0-.343.055.69.69 0 0 0-.348.277.906.906 0 0 0-.078.137v1.684c.031.065.066.124.105.18.042.051.09.097.145.136.065.05.14.087.226.113a1.071 1.071 0 0 0 .563.004.639.639 0 0 0 .398-.32c.052-.094.091-.2.118-.317.02-.086.035-.18.042-.28.011-.102.016-.208.016-.317v-.082ZM242.82 60h-1.097v-4.363l-1.438.515v-.945l2.477-.895h.058V60Zm4.805 0h-1.098v-4.363l-1.437.515v-.945l2.476-.895h.059V60Zm5.316-2.113h.661v.879h-.661V60h-1.086v-1.234h-2.363l-.043-.68 2.391-3.773h1.101v3.574Zm-2.425 0h1.339v-2.114l-.105.188-1.234 1.926Zm7.773-2.969L256.074 60h-1.144l2.218-4.8h-2.855v-.888h3.996v.606ZM260.43 60v-3.426h-1.11v-.8h1.11v-.231c0-.279.044-.525.132-.738.089-.214.215-.394.379-.54.164-.145.364-.255.598-.328a2.55 2.55 0 0 1 .785-.113c.091 0 .179.004.262.012.086.005.169.013.25.023.081.01.161.023.242.035l.258.044-.07.851a3.618 3.618 0 0 0-.778-.078c-.182 0-.337.02-.465.062a.707.707 0 0 0-.304.184.64.64 0 0 0-.153.25 1.124 1.124 0 0 0-.046.336v.23h1.523v.801h-1.523V60h-1.09Z"/><rect width="304" height="38" x="116.5" y="118.5" fill="#fff" rx="7.5"/><rect width="12.525" height="12.525" x="134" y="126" fill="#32E6E2" rx="2" transform="rotate(45 134 126)"/><path fill="#2036A1" d="M150.77 139v-7.12h2.62c.78 0 1.443.14 1.99.42.547.28.963.687 1.25 1.22.293.527.44 1.163.44 1.91 0 .753-.147 1.397-.44 1.93-.287.533-.707.94-1.26 1.22-.547.28-1.207.42-1.98.42h-2.62Zm1.29-1.05h1.25c.82 0 1.433-.21 1.84-.63.413-.42.62-1.05.62-1.89 0-1.667-.82-2.5-2.46-2.5h-1.25v5.02Zm10.557.49c-.24.2-.536.357-.89.47-.346.107-.7.16-1.06.16-.546 0-1.02-.103-1.42-.31a2.164 2.164 0 0 1-.91-.9c-.213-.393-.32-.86-.32-1.4 0-.52.104-.977.31-1.37.207-.4.494-.71.86-.93.367-.227.79-.34 1.27-.34.467 0 .867.103 1.2.31.334.2.59.49.77.87.187.38.28.83.28 1.35v.19h-3.59l.01-.67h2.84l-.34.34c.007-.487-.09-.857-.29-1.11-.193-.253-.476-.38-.85-.38-.4 0-.71.143-.93.43-.22.28-.33.683-.33 1.21 0 .6.124 1.043.37 1.33.247.28.62.42 1.12.42.274 0 .54-.043.8-.13.267-.093.514-.227.74-.4l.36.86Zm1.139 2.72v-5.78c0-.233-.007-.47-.02-.71a6.431 6.431 0 0 0-.06-.72h1.18l.11 1-.07.06c.107-.373.317-.663.63-.87.313-.213.683-.32 1.11-.32.44 0 .827.113 1.16.34.34.22.607.53.8.93.193.393.29.857.29 1.39 0 .527-.097.987-.29 1.38a2.213 2.213 0 0 1-.79.9c-.333.207-.723.31-1.17.31-.427 0-.797-.1-1.11-.3a1.505 1.505 0 0 1-.63-.87l.11-.16v3.42h-1.25Zm2.56-3.05c.413 0 .733-.14.96-.42.227-.287.34-.69.34-1.21 0-.533-.113-.947-.34-1.24-.227-.293-.547-.44-.96-.44-.427 0-.753.143-.98.43-.22.28-.33.69-.33 1.23 0 .527.11.933.33 1.22.227.287.553.43.98.43Zm3.641.89v-7.36h1.25V139h-1.25Zm4.898.07c-.527 0-.984-.107-1.37-.32a2.193 2.193 0 0 1-.88-.9c-.207-.393-.31-.86-.31-1.4 0-.533.103-.997.31-1.39.206-.4.5-.707.88-.92.386-.213.843-.32 1.37-.32.513 0 .96.107 1.34.32.386.213.683.52.89.92.213.393.32.857.32 1.39 0 .54-.107 1.007-.32 1.4a2.186 2.186 0 0 1-.89.9c-.38.213-.827.32-1.34.32Zm0-.96c.413 0 .73-.137.95-.41.226-.28.34-.697.34-1.25 0-.547-.114-.957-.34-1.23-.22-.28-.537-.42-.95-.42-.42 0-.747.14-.98.42-.227.273-.34.683-.34 1.23 0 .553.113.97.34 1.25.226.273.553.41.98.41Zm3.43 3.16-.28-.96c.313-.067.573-.147.78-.24.206-.087.376-.2.51-.34.14-.14.256-.32.35-.54l.36-.82.32-.46 1.62-3.96h1.24l-2.34 5.39c-.194.44-.417.79-.67 1.05a2.51 2.51 0 0 1-.86.6 4.113 4.113 0 0 1-1.03.28Zm1.75-1.94-2.33-5.38h1.31l1.59 3.96-.57 1.42Zm6.633-.33v-7.12h3.09c.774 0 1.37.187 1.79.56.427.367.64.87.64 1.51 0 .633-.216 1.137-.65 1.51-.426.373-1.02.56-1.78.56h-1.8V139h-1.29Zm1.29-3.97h1.65c.454 0 .79-.093 1.01-.28.227-.187.34-.45.34-.79 0-.347-.11-.61-.33-.79-.22-.187-.56-.28-1.02-.28h-1.65v2.14Zm5.173 3.97v-3.62c0-.233-.007-.47-.02-.71a6.431 6.431 0 0 0-.06-.72h1.18l.14 1.3-.14-.07c.087-.447.283-.783.59-1.01.307-.227.653-.34 1.04-.34.1 0 .193.007.28.02.087.013.163.033.23.06l-.02 1.14a1.686 1.686 0 0 0-.66-.13c-.3 0-.547.06-.74.18-.187.12-.33.283-.43.49-.093.2-.14.427-.14.68V139h-1.25Zm8.158-.56c-.24.2-.536.357-.89.47-.346.107-.7.16-1.06.16-.546 0-1.02-.103-1.42-.31a2.164 2.164 0 0 1-.91-.9c-.213-.393-.32-.86-.32-1.4 0-.52.104-.977.31-1.37.207-.4.494-.71.86-.93.367-.227.79-.34 1.27-.34.467 0 .867.103 1.2.31.334.2.59.49.77.87.187.38.28.83.28 1.35v.19h-3.59l.01-.67h2.84l-.34.34c.007-.487-.09-.857-.29-1.11-.193-.253-.476-.38-.85-.38-.4 0-.71.143-.93.43-.22.28-.33.683-.33 1.21 0 .6.124 1.043.37 1.33.247.28.62.42 1.12.42.274 0 .54-.043.8-.13.267-.093.514-.227.74-.4l.36.86Zm2.551.56-2.18-5.04h1.31l1.59 3.95h-.28l1.62-3.95h1.24l-2.21 5.04h-1.09Zm3.939 0v-5.05h1.25V139h-1.25Zm-.06-7.34h1.39v1.23h-1.39v-1.23Zm6.998 6.78c-.24.2-.537.357-.89.47-.347.107-.7.16-1.06.16-.547 0-1.02-.103-1.42-.31a2.158 2.158 0 0 1-.91-.9c-.213-.393-.32-.86-.32-1.4 0-.52.103-.977.31-1.37.207-.4.493-.71.86-.93.367-.227.79-.34 1.27-.34.467 0 .867.103 1.2.31.333.2.59.49.77.87.187.38.28.83.28 1.35v.19h-3.59l.01-.67h2.84l-.34.34c.007-.487-.09-.857-.29-1.11-.193-.253-.477-.38-.85-.38-.4 0-.71.143-.93.43-.22.28-.33.683-.33 1.21 0 .6.123 1.043.37 1.33.247.28.62.42 1.12.42.273 0 .54-.043.8-.13.267-.093.513-.227.74-.4l.36.86Zm2.47.56-1.98-5.05h1.29l1.42 3.91h-.25l1.43-3.91h.91l1.42 3.91h-.23l1.42-3.91h1.21l-1.98 5.05h-1.09l-1.54-4.07h.57l-1.51 4.07h-1.09ZM270.18 139.08c-.367 0-.717-.03-1.05-.09a4.678 4.678 0 0 1-.94-.29 3.3 3.3 0 0 1-.76-.46l.43-.94c.36.267.727.46 1.1.58.373.12.783.18 1.23.18.493 0 .873-.087 1.14-.26a.82.82 0 0 0 .41-.73c0-.187-.06-.34-.18-.46-.12-.127-.3-.233-.54-.32a7.587 7.587 0 0 0-.89-.25c-.42-.08-.79-.177-1.11-.29a3.2 3.2 0 0 1-.8-.42 1.66 1.66 0 0 1-.49-.57 1.857 1.857 0 0 1-.16-.8c0-.42.113-.793.34-1.12.227-.327.543-.58.95-.76.413-.187.897-.28 1.45-.28.333 0 .657.033.97.1a3.9 3.9 0 0 1 .88.29c.267.12.497.27.69.45l-.44.94a3.294 3.294 0 0 0-2.09-.76c-.46 0-.823.093-1.09.28a.899.899 0 0 0-.4.78c0 .193.053.353.16.48.113.127.283.233.51.32.233.087.53.173.89.26.413.087.78.187 1.1.3.327.113.603.25.83.41a1.547 1.547 0 0 1 .69 1.33c0 .427-.113.8-.34 1.12-.227.313-.553.557-.98.73-.42.167-.923.25-1.51.25Zm6.225-.01c-.526 0-.983-.103-1.37-.31a2.199 2.199 0 0 1-.88-.9c-.2-.393-.3-.853-.3-1.38 0-.533.107-1 .32-1.4.214-.4.517-.71.91-.93.394-.22.854-.33 1.38-.33.354 0 .697.057 1.03.17.34.113.617.27.83.47l-.36.88a2.342 2.342 0 0 0-.68-.39 1.98 1.98 0 0 0-.72-.14c-.44 0-.79.14-1.05.42-.253.28-.38.69-.38 1.23 0 .533.127.94.38 1.22.254.28.607.42 1.06.42.234 0 .47-.043.71-.13.24-.093.467-.23.68-.41l.36.88c-.22.2-.503.357-.85.47a3.54 3.54 0 0 1-1.07.16Zm2.749-.07v-3.62c0-.233-.006-.47-.02-.71a5.991 5.991 0 0 0-.06-.72h1.18l.14 1.3-.14-.07c.087-.447.284-.783.59-1.01.307-.227.654-.34 1.04-.34.1 0 .194.007.28.02a1 1 0 0 1 .23.06l-.02 1.14a1.678 1.678 0 0 0-.66-.13c-.3 0-.546.06-.74.18-.186.12-.33.283-.43.49-.093.2-.14.427-.14.68V139h-1.25Zm8.159-.56c-.24.2-.537.357-.89.47-.347.107-.7.16-1.06.16-.547 0-1.02-.103-1.42-.31a2.153 2.153 0 0 1-.91-.9c-.214-.393-.32-.86-.32-1.4 0-.52.103-.977.31-1.37.206-.4.493-.71.86-.93a2.36 2.36 0 0 1 1.27-.34c.466 0 .866.103 1.2.31.333.2.59.49.77.87.186.38.28.83.28 1.35v.19h-3.59l.01-.67h2.84l-.34.34c.006-.487-.09-.857-.29-1.11-.194-.253-.477-.38-.85-.38-.4 0-.71.143-.93.43-.22.28-.33.683-.33 1.21 0 .6.123 1.043.37 1.33.246.28.62.42 1.12.42.273 0 .54-.043.8-.13a2.67 2.67 0 0 0 .74-.4l.36.86Zm5.478 0c-.24.2-.536.357-.89.47-.346.107-.7.16-1.06.16-.546 0-1.02-.103-1.42-.31a2.164 2.164 0 0 1-.91-.9c-.213-.393-.32-.86-.32-1.4 0-.52.104-.977.31-1.37.207-.4.494-.71.86-.93.367-.227.79-.34 1.27-.34.467 0 .867.103 1.2.31.334.2.59.49.77.87.187.38.28.83.28 1.35v.19h-3.59l.01-.67h2.84l-.34.34c.007-.487-.09-.857-.29-1.11-.193-.253-.476-.38-.85-.38-.4 0-.71.143-.93.43-.22.28-.33.683-.33 1.21 0 .6.124 1.043.37 1.33.247.28.62.42 1.12.42.274 0 .54-.043.8-.13.267-.093.514-.227.74-.4l.36.86Zm1.139.56v-3.62c0-.24-.007-.48-.02-.72a6.392 6.392 0 0 0-.06-.71h1.18l.11 1-.11.03c.16-.38.396-.667.71-.86.32-.2.686-.3 1.1-.3 1.2 0 1.8.693 1.8 2.08v3.1h-1.25v-3.05c0-.393-.077-.68-.23-.86-.154-.187-.39-.28-.71-.28-.387 0-.697.123-.93.37-.227.24-.34.56-.34.96V139h-1.25Zm7.875.07c-.92 0-1.646-.21-2.18-.63l.35-.88c.267.2.557.35.87.45.314.1.64.15.98.15.307 0 .54-.05.7-.15.16-.1.24-.24.24-.42a.427.427 0 0 0-.17-.36c-.113-.093-.306-.173-.58-.24l-.84-.19c-.46-.1-.806-.267-1.04-.5-.226-.24-.34-.543-.34-.91 0-.307.087-.577.26-.81.174-.24.417-.427.73-.56.314-.133.677-.2 1.09-.2.36 0 .707.057 1.04.17.334.107.624.263.87.47l-.36.86a2.818 2.818 0 0 0-.78-.43c-.26-.093-.52-.14-.78-.14-.286 0-.51.053-.67.16a.502.502 0 0 0-.24.44c0 .147.047.263.14.35.1.087.27.157.51.21l.85.21c.5.107.864.28 1.09.52.234.233.35.543.35.93 0 .46-.186.827-.56 1.1-.373.267-.883.4-1.53.4Zm3.15-.07v-7.36h1.25v3.33l-.15.01c.16-.38.397-.667.71-.86.32-.2.687-.3 1.1-.3 1.2 0 1.8.693 1.8 2.08v3.1h-1.25v-3.05c0-.393-.077-.68-.23-.86-.153-.187-.39-.28-.71-.28-.387 0-.697.123-.93.37-.227.24-.34.56-.34.96V139h-1.25Zm8.316.07c-.527 0-.984-.107-1.37-.32a2.193 2.193 0 0 1-.88-.9c-.207-.393-.31-.86-.31-1.4 0-.533.103-.997.31-1.39.206-.4.5-.707.88-.92.386-.213.843-.32 1.37-.32.513 0 .96.107 1.34.32.386.213.683.52.89.92.213.393.32.857.32 1.39 0 .54-.107 1.007-.32 1.4a2.186 2.186 0 0 1-.89.9c-.38.213-.827.32-1.34.32Zm0-.96c.413 0 .73-.137.95-.41.226-.28.34-.697.34-1.25 0-.547-.114-.957-.34-1.23-.22-.28-.537-.42-.95-.42-.42 0-.747.14-.98.42-.227.273-.34.683-.34 1.23 0 .553.113.97.34 1.25.226.273.553.41.98.41Zm2.968-3.22v-.94h3.56v.94h-3.56Zm3.56 3.07v.99a1.684 1.684 0 0 1-.4.09c-.126.02-.263.03-.41.03-.566 0-1.006-.16-1.32-.48-.306-.32-.46-.78-.46-1.38v-4.49l1.25-.42v4.85c0 .227.037.407.11.54.074.127.17.217.29.27.127.053.267.08.42.08.087 0 .17-.007.25-.02.08-.013.17-.033.27-.06Z"/><path stroke="#CDE2FF" d="M236 126v18"/><circle cx="255.5" cy="135.5" r="5.5" fill="#CDE2FF"/><path fill="#2036A1" d="M354.77 139v-7.12h3.05c.807 0 1.42.177 1.84.53.42.353.63.86.63 1.52 0 .627-.217 1.127-.65 1.5-.433.367-1.037.55-1.81.55l.8-.16c.247 0 .467.073.66.22.193.147.347.373.46.68l.88 2.28h-1.36l-.9-2.37c-.093-.233-.227-.39-.4-.47a1.456 1.456 0 0 0-.63-.12h-1.3V139h-1.27Zm1.26-3.96h1.61c.493 0 .853-.09 1.08-.27.227-.18.34-.45.34-.81 0-.367-.113-.637-.34-.81-.227-.173-.587-.26-1.08-.26h-1.61v2.15Zm10.001 3.4c-.24.2-.536.357-.89.47-.346.107-.7.16-1.06.16-.546 0-1.02-.103-1.42-.31a2.164 2.164 0 0 1-.91-.9c-.213-.393-.32-.86-.32-1.4 0-.52.104-.977.31-1.37.207-.4.494-.71.86-.93.367-.227.79-.34 1.27-.34.467 0 .867.103 1.2.31.334.2.59.49.77.87.187.38.28.83.28 1.35v.19h-3.59l.01-.67h2.84l-.34.34c.007-.487-.09-.857-.29-1.11-.193-.253-.476-.38-.85-.38-.4 0-.71.143-.93.43-.22.28-.33.683-.33 1.21 0 .6.124 1.043.37 1.33.247.28.62.42 1.12.42.274 0 .54-.043.8-.13.267-.093.514-.227.74-.4l.36.86Zm3.429.63c-.527 0-.983-.103-1.37-.31a2.199 2.199 0 0 1-.88-.9c-.2-.393-.3-.853-.3-1.38 0-.533.107-1 .32-1.4.213-.4.517-.71.91-.93.393-.22.853-.33 1.38-.33.353 0 .697.057 1.03.17.34.113.617.27.83.47l-.36.88a2.342 2.342 0 0 0-.68-.39 1.98 1.98 0 0 0-.72-.14c-.44 0-.79.14-1.05.42-.253.28-.38.69-.38 1.23 0 .533.127.94.38 1.22s.607.42 1.06.42c.233 0 .47-.043.71-.13.24-.093.467-.23.68-.41l.36.88c-.22.2-.503.357-.85.47-.34.107-.697.16-1.07.16Zm5.049 0c-.527 0-.983-.107-1.37-.32a2.199 2.199 0 0 1-.88-.9c-.207-.393-.31-.86-.31-1.4 0-.533.103-.997.31-1.39.207-.4.5-.707.88-.92.387-.213.843-.32 1.37-.32.513 0 .96.107 1.34.32.387.213.683.52.89.92.213.393.32.857.32 1.39 0 .54-.107 1.007-.32 1.4a2.18 2.18 0 0 1-.89.9c-.38.213-.827.32-1.34.32Zm0-.96c.413 0 .73-.137.95-.41.227-.28.34-.697.34-1.25 0-.547-.113-.957-.34-1.23-.22-.28-.537-.42-.95-.42-.42 0-.747.14-.98.42-.227.273-.34.683-.34 1.23 0 .553.113.97.34 1.25.227.273.553.41.98.41Zm3.618.89v-3.62c0-.233-.007-.47-.02-.71a6.431 6.431 0 0 0-.06-.72h1.18l.14 1.3-.14-.07c.087-.447.283-.783.59-1.01.307-.227.653-.34 1.04-.34.1 0 .193.007.28.02.087.013.163.033.23.06l-.02 1.14a1.686 1.686 0 0 0-.66-.13c-.3 0-.547.06-.74.18-.187.12-.33.283-.43.49-.093.2-.14.427-.14.68V139h-1.25Zm8.658 0h-1.23v-1.28l.12.18c-.113.373-.33.663-.65.87-.313.2-.683.3-1.11.3-.44 0-.83-.107-1.17-.32a2.2 2.2 0 0 1-.78-.93c-.186-.4-.28-.863-.28-1.39 0-.527.09-.987.27-1.38.187-.393.45-.697.79-.91.34-.213.73-.32 1.17-.32.427 0 .797.107 1.11.32.32.213.537.5.65.86l-.14.15v-3.51h1.25V139Zm-2.53-.89c.414 0 .734-.143.96-.43.227-.287.34-.697.34-1.23 0-.527-.113-.933-.34-1.22-.226-.287-.546-.43-.96-.43-.42 0-.746.143-.98.43-.233.28-.35.68-.35 1.2 0 .533.117.947.35 1.24.234.293.56.44.98.44Z"/><circle cx="342.5" cy="135.5" r="5.5" fill="#CDE2FF"/><rect width="304" height="38" x="116.5" y="118.5" stroke="#2E51ED" rx="7.5"/></g><defs><filter id="b" width="214" height="214" x="239" y="-18" color-interpolation-filters="sRGB" filterUnits="userSpaceOnUse"><feFlood flood-opacity="0" result="BackgroundImageFix"/><feBlend in="SourceGraphic" in2="BackgroundImageFix" result="shape"/><feGaussianBlur result="effect1_foregroundBlur_3671_10899" stdDeviation="30"/></filter><filter id="c" width="280" height="280" x="30" y="4" color-interpolation-filters="sRGB" filterUnits="userSpaceOnUse"><feFlood flood-opacity="0" result="BackgroundImageFix"/><feBlend in="SourceGraphic" in2="BackgroundImageFix" result="shape"/><feGaussianBlur result="effect1_foregroundBlur_3671_10899" stdDeviation="30"/></filter><clipPath id="a"><path fill="#fff" d="M0 0h406v150H0z"/></clipPath></defs></svg>